<?xml version="1.0" standalone="no"?>
<!DOCTYPE svg PUBLIC "-//W3C//DTD SVG 1.1//EN" "http://www.w3.org/Graphics/SVG/1.1/DTD/svg11.dtd" >
<svg xmlns="http://www.w3.org/2000/svg">
<metadata></metadata>
<defs>
<font id="waldorfschrift_lightregular" horiz-adv-x="1167" >
<font-face units-per-em="2048" ascent="1638" descent="-410" />
<missing-glyph horiz-adv-x="614" />
<glyph horiz-adv-x="2048" />
<glyph horiz-adv-x="2048" />
<glyph unicode="&#xd;" horiz-adv-x="614" />
<glyph unicode=" "  horiz-adv-x="614" />
<glyph unicode="&#x09;" horiz-adv-x="614" />
<glyph unicode="&#xa0;" horiz-adv-x="614" />
<glyph unicode="!" horiz-adv-x="524" d="M152 10q16 64 16 95q0 26 -6 62q-4 22 4 22q29 9 116 19l75 9q-7 -79 -7 -66v-90q0 -24 -2 -47zM166 1563q2 3 19 14q69 45 139 45q39 0 38 -31q-3 -131 -6 -266l-8 -317q-2 -72 -4 -237q-2 -62 -7 -228q-2 -52 -21 -53l-133 -4q-13 0 -13 57z" />
<glyph unicode="&#x22;" horiz-adv-x="696" d="M131 1357q-1 2 3 67q4 74 4 165q0 69 -7 141q-5 47 0 47q47 0 123 13q30 5 55 11q-3 -57 -27 -256l-25 -210zM428 1357q-1 2 3 67q4 74 4 165q0 69 -7 141q-5 47 0 47q47 0 123 13q30 5 55 11q-4 -65 -27 -261q2 -71 -4 -209z" />
<glyph unicode="#" horiz-adv-x="1331" d="M65 637q6 25 54 81q23 61 97 60l142 -1l108 316l-222 4q-7 0 -22 -4q-8 -2 -8 2q3 4 8 12q19 21 48 73q15 27 33 49q19 11 89 11q56 0 116 -1l66 207q20 62 28 62q9 0 89 -34q26 -4 26 -21q0 -9 -3 -18l-70 -199h132q44 0 146 -1l66 206q16 50 25 59q1 2 4 4 q34 0 115 -47q1 -2 1 -6q0 -12 -17 -48l-57 -171q140 0 200 -5q-7 -21 -18 -42q-51 -98 -109 -98h-113q-15 -60 -56 -170l-59 -155l175 -2q2 0 19 4q9 3 15 3q-3 -30 -77 -136q-14 -20 -33 -20q-6 0 -21 6h-117l-89 -270q-20 -62 -36 -62q-35 17 -93 52q1 6 -1 17 q4 28 81 265q-170 4 -212 7l-42 3l-2 -52q-2 3 -5 3q-27 0 -102 -221q-22 -63 -37 -63q-10 8 -18 12h1q-28 13 -75 40q-1 24 9 59t39 125l32 99l-237 6h-13zM495 775l55 4q52 3 84 1q42 -2 42 -14l93 -2l31 97l-11 -9q14 15 24 39q15 36 68 199q-5 0 -54 1h-95h-127 l-40 -101q1 -6 3 -14q-2 -7 -12 -30q-16 -38 -61 -171z" />
<glyph unicode="$" horiz-adv-x="1343" d="M148 1178q0 73 15 158q19 111 52 145q64 66 221 66q34 0 100.5 -2t100.5 -2q0 80 25 93q17 9 45 9h30q29 -1 67 -7q6 -4 8 -13q3 -16 3 -81l245 -9q46 -2 48 -20l-25 -92q0 -8 -5 -19q-2 -4 -14 -4l-262 -11v-124q0 -15 -1 -43q-1 -34 -1 -48l-4 -263q119 -65 218 -110 l125 -57q67 -30 94 -159q18 -85 18 -188q0 -237 -95 -275q-27 -11 -96 -15t-262 -4q0 -77 -21 -78l-133 -5q-23 -1 -23 82l-460 12q-2 -4 -5 -2t-2 9v-2l23 140q1 18 24 18l451 8l2 450q-18 12 -43 24l-71 33q-44 22 -154 76q-76 37 -108 56q-72 42 -93 74q-37 57 -37 180z M354 1220q0 -38 45 -96q38 -48 79 -77q62 -43 171 -43l16 396q-98 0 -195 -28q-116 -33 -116 -152zM780 277q51 0 125 5q149 10 144 116q-4 73 -46 130q-78 105 -172 105q-29 0 -43 -28q0 21 -2 -82v-77q-1 -54 -2 -75q0 -35 -4 -94z" />
<glyph unicode="%" horiz-adv-x="1464" d="M140 1595q0 19 47 25q114 14 286 14q79 0 107 -12q20 -9 20 -55v-402l-17 -221q0 -4 -3 -4v-48q-2 47 -90 50q-51 0 -178 2q-23 0 -68 2q-27 1 -51 1q-7 0 -9 8q-7 20 -9 38l-31 373zM223 1400q0 -19 5 -31l42 -278q1 -32 29 -32q8 0 20 7l128 -25q21 0 36 11 q24 10 25 33l29 189l-26 212l-45 45q-18 13 -50 13q-68 0 -129 -31q-16 -11 -40 -37q-24 -34 -24 -76zM420 -2q0 10 17 58l551 1559q2 5 24 5q37 0 76 -23q24 -14 24 -30q0 -5 -5 -16q-62 -134 -280 -731q-142 -389 -299 -787q-15 -39 -24 -39q-5 0 -12 4h-72zM895 655 q0 5 12 9q24 12 38 16q140 16 284 16q71 0 108 -14q18 -9 18 -53v-404l-16 -221q-1 -2 -4 -2v-51v13q-3 39 -90 40l-296 4q-9 1 -11 7q-4 19 -6 38l-30 373zM968 460q0 -18 3 -28l44 -287q1 -31 38 -31l8 6l143 -26q41 0 58 35q3 5 4 10v-1l27 196l-12 214q-61 59 -107 59 q-85 0 -142 -31q-64 -35 -64 -116z" />
<glyph unicode="&#x26;" horiz-adv-x="1485" d="M154 414q0 135 21 288l-4 17q1 12 18 32q26 30 35 37q197 146 277 201q20 14 20 35q0 36 -44 66q-27 19 -53 32q-82 154 -82 276q0 128 94 205q14 2 45 7q128 18 283 18q121 0 225 -13l7 -13q89 -165 89 -303q0 -86 -32 -158l-198 -141q-12 -7 -23 -24q-17 -19 -17 -44 q0 -28 14 -47l175 -320q4 -5 8 -8l7 -5q14 -10 32 -10t31 10q19 15 87 52q4 3 11 6q2 -2 5 -6q24 -30 43 -76q4 -10 4 -22q0 -13 -14 -22q-7 -14 -70 -88q-4 -5 -12 -14q-10 -18 -10 -39q0 -26 25 -53l141 -151l10 -84q2 -19 7 -40q-2 1 -5 1q-26 -6 -53 -6q-1 -10 -1 -9 l-17 17q-22 0 -71 56q-68 78 -99 131q-27 47 -47 47q-14 0 -24 -10h4l-10 -4q-82 -87 -112 -152q-6 -12 -34 -44q-20 -22 -43 -22q-118 -15 -219 -14q-170 1 -302 35q-42 11 -57 29.5t-17 25.5q-48 112 -48 318zM348 565q7 -141 65 -244q68 -121 191 -152q133 38 305 193 q15 31 15 47q0 32 -17 51l-224 377q-23 38 -58 38q-18 0 -35 -7q-7 -6 -12 -12q-184 -145 -230 -291zM559 1367q0 -86 72 -221q29 -55 69 -55q22 0 42 17q139 116 139 235q0 95 -106 147q-36 12 -75 12q-86 0 -121 -59q-20 -34 -20 -76z" />
<glyph unicode="'" horiz-adv-x="500" d="M110 1269q57 80 174 238q55 57 138 77q10 -8 66 -35q-10 -18 -50 -64q-24 -28 -105 -113l-127 -134q-18 -19 -30 -31z" />
<glyph unicode="(" horiz-adv-x="655" d="M127 636q0 72 13 185q6 54 25 196q8 51 16 120q57 244 179 407q31 41 51 66q21 -6 56 -35q75 -63 75 -106q0 -13 -21 -24q-12 -14 -38 -53q-166 -247 -166 -693q0 -119 18 -214q13 -71 98 -246q7 -15 34 -77q34 -30 38 -44q0 -6 -4 -10l-76 -113q-19 1 -46 18 q-76 123 -187 319q-65 115 -65 304z" />
<glyph unicode=")" horiz-adv-x="655" d="M191 122q5 14 26 44q13 18 46 98q12 29 66 220q12 37 36 135q25 120 25 253q0 185 -38 242q-37 171 -111 331q-34 28 -38 42q0 7 3 11l78 113q0 2 3 1q35 -32 74 -69q121 -227 168 -437q12 0 8 -8q-4 -7 -3 -14q16 -116 16 -271q0 -195 -25 -367q-54 -170 -230 -449 q-39 15 -104 125z" />
<glyph unicode="*" horiz-adv-x="840" d="M105 1302q0 5 6 18l27 39q1 31 10 36q20 10 58 11l114 3l-68 122q-16 28 -18 40q6 2 18 1l38 -2q15 11 34 11q13 0 22 -13l6 -24l48 -90l68 137q11 22 21 32q1 1 4 2q6 -6 9 -13l16 -36q12 -8 22 -22q8 -8 8 -19t-19 -32l-49 -93l135 3q7 1 29 5q11 1 11 -5q0 -12 -5 -20 l-21 -32q-2 -22 -11 -45q-4 -10 -22 -10l-20 4h-96l95 -174q6 -11 15 -34l-1 -1q-5 -1 -10 -1l-44 5q-24 -12 -29 -12q-16 0 -44 51l-60 111l-83 -166q-14 -22 -25 -31l-3 7l-20 47q-23 14 -23 30q0 18 20 56l57 109l-182 -3q-11 0 -28 -5q-10 -3 -10 3z" />
<glyph unicode="+" horiz-adv-x="991" d="M173 613q0 3 1 5q7 10 10 19l27 84q0 34 15 41q27 13 71 14l172 2l-2 198q0 33 3 55q17 0 28 -9l77 -23q13 -1 42 -15q13 -6 13 -31l-4 -29l2 -144l189 2q38 0 55 -3q0 -14 -10 -32l-23 -77q-2 -22 -12 -46q-7 -16 -32 -16q-6 1 -25 4l-140 -3l2 -271q0 -49 -5 -54 q-1 0 -7 2.5t-16 7.5l-79 33q-36 1 -46 31q-4 13 -5 63l-3 187l-248 -2q-38 0 -50 7z" />
<glyph unicode="," horiz-adv-x="561" d="M172 166q-5 54 0 54q49 0 131 15q35 6 58 10q-6 -76 -15 -151l-29 -244q-5 -42 -9 -82l-123 20l-2 51q-1 109 -11 327z" />
<glyph unicode="-" horiz-adv-x="834" d="M158 568q1 3 8 29l29 103q0 34 12 42q18 11 63 12l406 8q32 1 47 -3q-2 -10 -9 -27l-20 -98q0 -17 -11 -43q-7 -17 -28 -17q-7 0 -19 7l-433 -10q-14 0 -33 -6q-12 -4 -12 3z" />
<glyph unicode="." horiz-adv-x="492" d="M162 0q17 79 17 115q0 33 -7 75q-4 24 0 26q50 0 123 16q45 10 76 18q-11 -66 -11 -79v-109q0 -29 -2 -58z" />
<glyph unicode="/" horiz-adv-x="1065" d="M111 8q0 15 16 58l289 777l332 765q3 6 51 6q73 0 118 -23q27 -14 27 -28q0 -7 -4 -17q-238 -469 -365 -767q-18 -42 -86 -212q-44 -112 -160 -404q-27 -67 -34 -84q-31 -69 -47 -75q-6 0 -16 4h-121z" />
<glyph unicode="0" horiz-adv-x="1352" d="M123 1295q0 75 29 149q68 174 360 174h279q14 0 94 -21q194 -51 303 -197q71 -94 69 -219l-8 -650q-3 -215 -100 -420q-53 -111 -143 -111q-19 0 -39 6q9 0 -78 1t-184 1h-285l-22 -14q-65 -3 -211 350l-56 636l-6 233v33q-2 20 -2 49zM327 1099q0 -35 10 -100l94 -611 l458 -164q20 -7 37 -7q93 0 123 172q27 157 27 327v61l-51 463q4 12 4 19q0 60 -101 95q-71 25 -146 39q-26 0 -76.5 2t-76.5 2q-88 0 -145 -25q-157 -69 -157 -273z" />
<glyph unicode="1" horiz-adv-x="819" d="M172 1261q0 19 7 80q2 18 2 17l-3 10q2 7 78 62q91 66 193 125q12 25 82 52q39 15 77 15q40 0 39 -30l-23 -918q-4 -171 -6 -349q0 -35 -6 -268q-1 -52 -21 -53l-133 -4q-11 0 -13 15v42l8 1181q0 55 -37 55q-9 0 -17 -6l-106 -28q-95 -25 -119 -25q-2 10 -2 27z" />
<glyph unicode="2" horiz-adv-x="1331" d="M148 496q0 79 82 144q49 27 49 46q0 14 129 52q407 120 515 120q87 22 87 118q-13 101 -86 253q-19 40 -61 113q-19 34 -47 47q-28 9 -43 10q-109 42 -230 41q-130 -1 -271 -46q-30 -16 -49 -16q-17 0 -22 6q-8 9 -13 19q-17 31 -26 97q0 5 2 7q6 5 13 11l166 66 q20 8 60 20q31 6 43 6h531q9 0 40 -20q9 -6 15 -23q89 -248 138 -405q63 -200 65 -309q1 -31 -12 -52q-3 -31 -190 -87q-134 -39 -217 -55q-67 -12 -231 -47q-87 -21 -160 -69q-69 -45 -69 -108q0 -13 -2 -39t-2 -39q0 -70 66 -109q60 -36 171 -52q166 -24 585 -24 q16 5 20 5q7 0 8 -21l38 -146q-2 -4 -4 -7l-3 1l-987 -6q-21 0 -47 28q-3 4 -9 10z" />
<glyph unicode="3" horiz-adv-x="1341" d="M158 0l40 136q7 23 43 24q176 6 457 25q51 4 143 22q60 12 91 34q54 38 72 80q14 34 14 107q0 64 -23 94q-21 27 -108 48q-99 21 -357 78q-22 5 -20 27l9 105q1 11 33 13q55 12 171 32l129 22q66 11 89 21q51 12 69 29q25 24 25 63q-10 84 -49 202.5t-81 187.5 q-27 69 -295 100q-73 8 -339 22q-12 -4 -17 -4q-13 0 -24 15q-15 14 -15 20l-39 133q-1 5 -3 8q13 3 34 3l784 -13q10 -1 30 -9q15 -6 20 -28q189 -534 189 -725q0 -33 -8 -51q-29 -67 -60 -103q-17 -11 -50 -17q-25 -9 -25 -30q0 -18 40 -40q24 -13 45 -25q47 -39 48 -109 l-99 -467q-4 -8 -19 -23q-11 -11 -33 -11l-911 -2v6z" />
<glyph unicode="4" d="M103 737q0 8 4 23q1 13 2 20l260 798q2 31 29 32l135 6q9 0 9 4q0 -15 10 -23l-179 -674q-7 -26 -7 -49q0 -62 49 -81q26 -10 54 -10q29 0 59 9l233 2l18 341q1 15 8 44q0 2 -3 5l161 53q11 -2 11 -31q0 -16 -6 -48q0 -139 -7 -354l81 5l62 -16q5 -3 17 -10 q-2 -10 -2 -179q-8 -8 -25 -8l-138 -3q0 -98 -2 -160l-5 -156v-123q0 -45 -1 -77q-1 -28 -1 -20q0 -52 -21 -53l-153 -4q-13 0 -14 23q0 10 1 33l23 530l-332 -11q-108 -4 -230 -10q-100 61 -100 172z" />
<glyph unicode="5" horiz-adv-x="1423" d="M142 147q2 28 40 32l705 70q56 6 79 47q18 33 23 55q27 65 42 186q12 98 12 173q0 19 -4 30l1 -1q-5 14 -28 30q-32 31 -262 82l-180 40q-308 68 -383 142q-18 18 -19 23q-10 26 -10 57q0 74 36 157q14 31 76 143q58 103 76 158q9 26 32 34q7 2 17 5l738 12q74 1 75 -46 l-21 -107q-1 -6 -7 -14q-2 -3 -31 -5l-582 -36q-91 -6 -109 -59q-50 -67 -75 -145q0 -47 14.5 -67.5t59.5 -34.5q9 0 54 -9l146 -29q231 -46 341 -76q130 -36 130 -48q0 -19 41 -39q6 -3 44 -29q48 -33 48 -108l-99 -741q-25 -33 -52 -33l-921 -2v16q-27 64 -47 137z" />
<glyph unicode="6" horiz-adv-x="1372" d="M170 546l15 528q6 194 64 317q83 175 187 227l523 12q26 1 36 -6q6 -7 7 -12l48 -117q-2 -20 -20 -20q-100 -11 -196 -26q-81 -13 -286 -40q-35 -4 -72 -23q-49 -26 -50 -98q-9 -83 -9 -160q0 -43 67 -43q76 9 165 9q264 0 434 -63q46 0 58 -44q18 -65 18 -100l86 -559 q-6 -82 -42 -205q-32 -110 -114 -110q-218 -21 -423 -21q-174 0 -320 20q-125 77 -137 185zM397 355q0 -79 57 -129q54 -47 134 -47q50 0 120 3l120 5q135 3 169 84q14 33 17 57q0 21 2 34l-28 383q-5 68 -80 89l-425 62q-84 0 -84 -106z" />
<glyph unicode="7" horiz-adv-x="1229" d="M138 1479q2 8 13 59q6 27 22 93q-1 -1 1 -5q16 8 25 10h729v51h-4l3 -51q70 9 91 9q33 0 57 -9q27 -4 37 -14q-112 -232 -198 -510q-51 -165 -87 -340q167 0 184 -6l-4 2q6 -2 12 -6q0 -17 -17 -58t-17 -54q1 2 1 14q-19 -4 -75 -14l-112 -20q-106 -273 -142 -513 q-16 -108 -16 -139q45 0 65 62l-47 18q-11 -29 -18 -42q-5 -6 -14 -8h-23l-193 4q1 32 8 58l142 536q-94 -6 -156 -13q-14 -2 -52 -6h12q-1 42 4 119l5 74q48 3 66 3h161l178 489q30 61 30 117q-8 56 -98 58l-537 10q-32 1 -36 22z" />
<glyph unicode="8" horiz-adv-x="1341" d="M123 764q0 52 52 107q47 50 100 67l14 18q0 27 -51 53q-86 44 -80 132l21 289q7 18 39 72q88 147 228 147h497q215 -95 251 -201q4 -11 4 -16l14 -296q4 -86 -77 -132q-52 -29 -52 -57l16 -16q156 -45 156 -175q0 -371 -54 -530q-43 -127 -151 -183q-62 -32 -104 -33 l-507 -8q-90 7 -156.5 63.5t-86.5 143.5q-24 73 -42 185q-31 196 -31 370zM301 655q29 -264 95 -392q52 -101 298 -101q78 0 159 17q112 24 134 68q58 114 95 397q0 49 -23 76q-33 39 -203 68l-190 32q-127 -18 -288 -57q-39 -9 -58 -36t-19 -72zM356 1157q0 -69 115 -99 q53 -14 203 -46q287 60 319 96q23 40 23 98q0 73 -32 143t-91 111q-35 31 -184 31q-51 0 -212 -11q-63 -33 -103 -118q-36 -76 -36 -154v-30q0 -8 -2 -21z" />
<glyph unicode="9" horiz-adv-x="1249" d="M181 731l22 595q6 169 69 221q74 61 111 65q179 18 365 18q68 0 112 -4q55 -5 141 -16q14 -2 44 -22q93 -63 93 -342q18 -100 23 -164q6 -76 6 -229q0 -80 -12 -305q-6 -110 -107 -494q0 -30 -166 -44q-108 -10 -206 -10q-148 0 -263 4q-38 1 -201 10q-13 1 -13 10l18 72 q4 14 19 70q-1 4 0 9q2 1 169 14l242 19q99 8 158 15q65 0 77 69q38 108 38 192q0 52 -61 52q-76 -8 -148 -8q-261 0 -455 63q-45 0 -58 46q-18 63 -17 94zM393 859q0 -35 13 -51q12 -20 28 -21l418 -36q26 -2 48 9q17 17 16 41l-10 464q4 30 4 44q0 43 -10 71 q-15 26 -24 33q-46 37 -133 46q-28 3 -143 3h-59q-89 0 -97 -79z" />
<glyph unicode=":" horiz-adv-x="471" d="M115 953q35 8 73 8q58 0 81 -16q7 -71 7 -146q0 -30 14 -30l-161 21q5 30 5 65v91q0 8 -8 9q-6 -1 -11 -2zM133 279q1 4 7 26q10 38 10 81q0 34 -8 65q-5 21 -3 21q108 0 150 10l-2 -1q14 0 14 -53v-149h-168z" />
<glyph unicode=";" horiz-adv-x="561" d="M172 143q-5 48 0 48q50 0 131 14l58 10q-4 -50 -28 -240l-25 -197l-123 19l-2 45q-1 100 -11 301zM180 897zM180 897q30 6 82 6q67 0 91 -15q7 -60 7 -147q0 -14 14 -34q-12 0 -184 21zM190 728z" />
<glyph unicode="&#x3c;" horiz-adv-x="471" d="M76 673q8 14 36 66q32 60 62 119q44 87 100 188q1 3 72 58q0 11 6 8q12 -6 18 -6h13l-120 -436l118 -354q-4 -2 -20 -2h-6q16 0 -44 5q-25 25 -185 200z" />
<glyph unicode="=" horiz-adv-x="909" d="M160 395q0 8 9 21l30 99q0 33 29 40q7 2 57 3l442 7q39 1 55 -3q-2 -7 -10 -21l-23 -91q-1 -13 -11 -37q-8 -14 -33 -14q-6 1 -25 5l-469 -7q-16 0 -38 -5q-13 -3 -13 3zM170 719q0 3 1 4l5 8q3 5 5 11l28 97q0 27 13 33q19 9 73 10l442 7q37 1 53 -3q-1 -8 -10 -22 l-21 -90q-1 -15 -13 -38q-7 -13 -31 -13q-6 1 -25 5l-469 -7q-16 0 -38 -5q-13 -3 -13 3z" />
<glyph unicode="&#x3e;" horiz-adv-x="471" d="M96 1099q4 3 21 3h7q9 0 26 -2l17 -2q28 -28 103 -109q19 -20 84 -88l52 -153q-14 -28 -35 -67q-52 -104 -158 -310q-11 -10 -70 -58q0 -11 -6 -8q-13 5 -19 5h-12l113 438z" />
<glyph unicode="?" horiz-adv-x="1024" d="M123 1599q1 6 4 13h678q74 0 92 -27q22 -32 22 -62l2 -306q0 -8 -7 -32q-6 -15 -30 -29q-102 -61 -240 -167l-61 -47q-39 -30 -157 -125q-50 -71 -50 -141q0 -42 21 -55q26 -9 52 -19q9 -2 20 -2q86 0 386 50q4 -1 9 -21l10 -95q-2 -1 -14 -2q-128 -82 -317 -82 q-94 0 -190 19q-52 10 -130 29q-26 0 -33 11t-10 25q-38 86 -38 190q0 4 4 40q2 18 2 39q0 87 47 133q174 115 317 219q184 134 190 151l-2 -4q11 21 11 42q0 28 -35 82q-22 34 -63 36l-339 16q-108 0 -126 12q-5 8 -6 11zM428 4q17 62 17 93q0 28 -7 62q-4 20 0 21 q46 0 123 14q30 5 76 14q-11 -52 -11 -65q0 6 -4 -135z" />
<glyph unicode="@" horiz-adv-x="2212" d="M166 726q0 356 29 667q14 146 33 188q25 54 361 68q30 0 106 3q44 2 61 2h125q34 0 105 3l105 4q112 3 226 1l314 -5q130 -2 270 -27q106 -19 118 -43q18 -38 34 -194q12 -119 21 -339q10 -240 10 -347q0 -44 -4 -90l-6 -69q-12 -134 -26 -357q-7 -23 -26 -66 q-12 -28 -37 -28q0 -47 -25 -59q-105 -21 -165 -21q-30 0 -88 9q-38 3 -81 14q-6 7 -8 16q-7 17 -19 37q-18 30 -46 30q-24 0 -40 -28q-22 -71 -50 -71q-49 -11 -515 -11h-127q-74 0 -82 65q0 70 -10 181l-16 181q-6 106 -6 344v94q0 12 -7 145q-3 48 13 48q0 60 23 71 q15 6 36 7q150 9 639 33q32 -6 46 -30q23 -31 30 -49q37 -282 48 -440q5 -72 8 -160q44 -316 141 -315q96 1 136 70q21 36 26 108q14 58 14 192q0 31 -2 84q-3 60 -3 84q-2 164 -12 287q0 -3 1 46v45q0 54 -15 82q-28 153 -246 220q-33 26 -105 34q-115 12 -166 14 q-63 2 -268 2q-108 0 -168 -2q-85 -3 -242 -47q-110 -31 -166 -86q-34 -33 -44 -56q-14 -30 -38 -112q-9 -31 -20 -149q-15 -164 -12 -280l12 -450q0 -16 11 -157q8 -101 21 -142q31 -144 141 -146q97 -32 194 -47q284 -44 587 -44q137 0 255 12q61 6 133 22q161 35 311 96 q6 4 11 6v-81q0 -34 -13 -38q-188 -98 -352 -134q-105 -23 -214 -23q14 0 -59 1q-87 2 -213 4l-620 9q-7 0 -86 13q-28 5 -158 34q-43 10 -80 24q-10 12 -24 176q-12 140 -26 479q-3 61 -10 172l-7 104q-2 30 -2 112zM878 321q0 -47 72 -113q111 -41 228 -41q143 0 206 67 q18 77 18 201q0 256 -91 507q-10 50 -84 50l-274 -53q-29 -6 -41 -30q-8 -38 -23 -104q0 -3 -1 -6l-8 -159v-301q0 -9 10 -18h-12zM888 795l50 -4l1 8l-49 11q-2 -7 -2 -15z" />
<glyph unicode="A" horiz-adv-x="1352" d="M119 2q29 430 76 878q65 617 136 734q0 14 55 16l202 6q52 1 180 2l158 2q4 -1 14 -7q5 -3 6 -20q17 -77 54 -190l61 -189q88 -293 124 -512q29 -176 29 -357q0 -126 -4 -179q-2 -30 -16 -174q0 -3 -3 -10l-169 2q-4 1 -4 8q2 107 2 289q0 78 -76 78h-2q-22 0 -268 -18 q-212 -15 -270 -25q-55 -3 -71 -71q-6 -30 -25 -120q-14 -63 -26 -126q-4 -19 -10 -19zM360 598q0 -69 60 -69h3q235 7 500 30q65 6 65 77q-24 129 -151 541q-49 158 -61 186q-17 29 -38 41q-20 9 -31 9q-168 0 -203 -114z" />
<glyph unicode="B" horiz-adv-x="1331" d="M148 4l21 1630h822q8 0 30 -9q15 -6 20 -27q189 -536 189 -726q0 -32 -8 -50q-30 -68 -60 -104q-17 -10 -50 -17q-25 -9 -25 -29q0 -19 40 -41q24 -13 45 -25q47 -39 48 -109l-99 -467q-4 -8 -19 -23q-11 -11 -33 -11l-921 -2v10zM319 249q0 -70 76 -70q54 0 156 -8 q106 -8 156 -9h9q103 0 160 22q78 31 115 118q27 63 27 126q0 65 -23 95q-20 26 -108 47q-99 21 -357 78q-22 5 -20 27l9 105q1 11 33 14q40 8 171 32q88 15 217 42q86 23 86 114q-11 89 -52 215t-86 202q-25 61 -93 61q-61 0 -137 -13q-54 -9 -215 -42q-71 -6 -98 -85 q-17 -140 -22 -547q-1 -113 -2 -349q0 -51 -1 -109z" />
<glyph unicode="C" horiz-adv-x="1157" d="M166 914q0 94 9 261q7 131 14 204q15 156 37 192q9 15 110 30q171 25 545 25h143q13 0 14 -2q0 -6 -2 -11l-41 -99q0 -11 -8 -23q-4 -5 -30 -7q-383 -24 -487 -104q-53 -41 -69 -102q-6 -11 -14 -31q-10 -28 -21 -116q-12 -103 -12 -187v-33l12 -405q8 -285 174 -287 q190 -49 386 -49q49 0 68 2q6 1 14 5q0 -3 1 -16l8 -114q1 -13 -3 -19q-1 0 -14 -2q-90 -11 -251 -18l-190 -8h-4q-43 0 -242 36q-40 7 -80 19q-9 8 -22 131q-7 61 -26 371l-17 270q-2 32 -2 87z" />
<glyph unicode="D" horiz-adv-x="1321" d="M150 1642l842 -33q5 0 18 -4q27 -23 33 -46l109 -408q10 -42 36 -144q3 -13 9 -26q3 -13 3 -33q0 -15 -8 -32q-13 -165 -121 -883q0 -12 -7 -27q-2 -6 -22 -6h-882q-4 9 -4 28l35 1560zM307 248v-7q1 -35 19 -55q20 -22 57 -22h3q240 7 425 30q43 1 67 32q19 25 29 50 q11 68 40 279l44 316q9 58 24 162l-118 317q-9 24 -23 36q-12 6 -24 8l-430 59q-23 0 -40 -14q-8 -13 -10 -50z" />
<glyph unicode="E" horiz-adv-x="1178" d="M166 914q0 94 9 261q7 131 14 204q15 156 37 192q9 15 110 30q171 25 545 25h143q13 0 14 -2q0 -6 -2 -11l-41 -99q0 -11 -8 -23q-2 -3 -30 -7l-196 -11q-118 -9 -195 -26q-54 -12 -80 -32q-27 -15 -58 -50q-78 -87 -78 -280q0 -113 17 -171v1q12 -43 151 -43q-4 0 69 2 l73 2l56 2h13q38 0 138 -4q19 -1 19 -15v-111q-4 -21 -13 -28q-12 -7 -21 -8q-313 -20 -420 -78q-37 -20 -46 -35l-14 -73q-6 -31 -6 -70q0 -282 490 -282q25 0 151 7q1 -2 2 -19l8 -115q1 -13 -3 -19q-1 0 -14 -2q-90 -11 -251 -18l-190 -8h-4q-43 0 -242 36q-40 7 -80 19 q-9 8 -22 131q-7 61 -26 371l-17 270q-2 32 -2 87z" />
<glyph unicode="F" horiz-adv-x="1106" d="M152 1640q37 -18 83 -18h5q242 4 575 4l257 1q9 -4 21 -5q0 15 -6 15l-3 -6l-41 -98q-4 -21 -32 -21q-174 -16 -353 -42q-208 -31 -223 -78q-7 -22 -14 -105q-17 -201 -20 -338q-1 -30 12 -56q19 -23 62 -23h103q12 0 57 1q25 1 74 1h56q50 0 77 -1l-4 -10q-2 -8 -8 -24 q0 -1 -13 -47q-1 -11 -14 -34q-7 -13 -35 -14q-57 -17 -142 -35q-46 -10 -180 -42q-25 -25 -25 -96l-51 -552l12 -13h-8q-2 -4 -12 -4h-174q-3 1 0 7q5 11 5 20l-12 1527q-5 20 -17 54q-8 23 -12 32z" />
<glyph unicode="G" horiz-adv-x="1454" d="M160 1489q-2 60 137 116q329 33 668 33q11 0 26 2h64q194 0 253 -29q6 -2 6 -18q0 -65 -62 -168q-4 -10 -9 -10q-6 1 -17 7q-66 17 -216 17h-104q-23 0 -67 -4q-170 0 -315 -66q-150 -181 -150 -310q0 -27 9 -61l85 -621q21 -67 59 -74l417 -79q49 0 83 34q18 18 20 36 l70 532v75q0 13 -2 24q55 10 167 10q11 0 12 -25q0 1 -12 -361l-17 -516l-9 -61q-4 -7 -10 -19q-4 -4 -8 -6h-230v-2q1 0 10 63l-140 1t-280 1h-276q-30 0 -45 24q-25 40 -31 114l-71 832z" />
<glyph unicode="H" horiz-adv-x="1362" d="M148 12l4 1590q0 10 1 12q7 3 12 4l155 4q6 0 14 -4q-1 -5 -1 -11l56 -682q3 -41 33 -55q20 -10 36 -10l459 -14h4q61 0 67 61l61 697q2 18 11 18l171 -4q1 -3 1 -17l5 -1593q1 -6 1 -4q-6 -3 -10 -4l-164 -4h-11q-8 57 -63 546q-8 67 -74 67h-8l-444 -26q-37 -6 -54 -27 q-11 -17 -16 -34q8 -3 11 -2l-18 -17q-9 -65 -31 -235l-19 -147q-5 -31 -14 -106q-2 -15 -16 -15h-147q-8 0 -8 -1q-4 9 -4 13z" />
<glyph unicode="I" horiz-adv-x="512" d="M160 15v42l6 1506q2 3 19 14q69 45 139 45q38 0 38 -29q0 -40 -12 -511l-10 -408q-2 -99 -7 -349l-6 -268q-1 -52 -21 -53l-133 -4q-11 0 -13 15z" />
<glyph unicode="J" horiz-adv-x="1178" d="M125 2q0 6 2 11l41 99q0 10 10 22q3 4 28 8q395 22 526 104q65 41 83 105q13 27 26 89q21 100 21 224q0 25 -1 51l-13 405q-3 80 -29 172q-33 114 -144 115q-69 19 -134 28q-144 21 -303 21q-70 0 -81 -6q-2 2 -3 14l-8 115q-1 15 4 23q2 -1 14 -1q74 10 265 17l226 8h5 q48 0 243 -36q41 -7 80 -21q7 -2 16 -85q10 -86 20 -250l27 -435q2 -32 2 -87q0 -204 -16 -401q-17 -211 -43 -255q-9 -15 -120 -30q-198 -26 -586 -26h-144q-13 0 -14 2z" />
<glyph unicode="K" horiz-adv-x="1290" d="M172 1637l199 3q22 0 22 -9q0 -8 -6 -22l-19 -286q-6 -88 -8 -268l-2 -234q195 26 260 40q194 41 225 104q112 223 112 437q0 55 -10 160q-7 21 -7 37q0 8 27 23q65 4 135 4q24 0 24 -58v-9q-10 -425 -66 -577q-52 -144 -89 -153q-22 -5 -64 -31q-19 -12 -75 -46 l330 -769h-3q-1 -1 -6 -3l-122 -74q-20 0 -32 3q-3 1 -6 0q-40 64 -112 220q-31 68 -131 301l-85 199q-13 52 -57 52q-10 0 -18 -3q-19 -4 -230 -40q0 -93 2 -218l2 -163v-250q0 -2 -2 -5l-174 -1q-2 0 -7 -2v10z" />
<glyph unicode="L" horiz-adv-x="963" d="M189 20l8 272q7 231 12 342q5 97 17 347l5 127q0 9 -3 13l-5 4q2 1 14 1l-44 451q0 15 4 18q9 8 12 8l179 23q31 4 18 4q16 0 23 -32q9 -42 31 -162l25 -143q1 -27 4 -81l-88 -954q0 -46 40 -51l345 -47q5 -1 24 -18q17 -22 17 -50l18 -78q-1 -14 -20 -14h-610 q-27 0 -26 20z" />
<glyph unicode="M" horiz-adv-x="2109" d="M97 17q3 9 14 67l280 1444q5 14 18 37q8 15 21 15l381 7q6 -1 12 -7l13 -28l159 -1180q15 -115 76 -115q34 0 55 44q16 34 22 54l187 1184q6 14 18 38q9 14 21 14l379 6q7 0 12 -7q11 -18 15 -26l241 -1419q11 0 13 -1q-2 -3 -1 -9q25 -63 25 -102q0 -35 -8 -35h-153 q-30 7 -53 63l-42 103l-192 1005q-36 51 -70 51t-63 -46l-193 -1104q-12 -70 -53 -70h-68h3l-144 -2q-10 0 -115 2q-40 1 -46 41l-171 1176q-26 52 -74 52q-33 0 -61 -44l-235 -1167q-12 -60 -54 -60h-160q-9 0 -9 19z" />
<glyph unicode="N" horiz-adv-x="1505" d="M138 50l10 1513q0 38 9 50q13 9 23 9l312 6h5q91 0 106 -68l383 -1149q12 -37 31 -77q27 -59 66 -59q52 0 77 150q4 91 4 160q0 165 -11 457q-4 118 -8 262l-4 162v28q0 40 2 68q0 50 46 68h134q42 0 41 -50l-29 -1512q-1 -59 -32 -60l-336 -6h-3q-44 0 -71 33 q-32 39 -38 59l-290 980q-62 208 -125 208q-61 0 -82 -157q0 -4 4 -24q1 -6 -14 -6l-19 -1019q0 -19 -12 -50q-7 -19 -42 -20l-106 -4h-2q-14 0 -19 11q-10 26 -10 37z" />
<glyph unicode="O" horiz-adv-x="1454" d="M160 1489q-2 60 137 116q329 33 668 33q105 0 270 -57q7 -4 22 -16q45 -51 45 -133v-901l-39 -496q1 -9 -3 -22q-13 -7 -37 -7h-277q-138 2 -350 2h-274q-30 0 -45 24q-25 40 -31 114l-71 833zM374 1058q0 -27 10 -61l94 -610q5 -18 16 -39q16 -30 44 -36l405 -89 q43 0 79 31q22 19 25 38l80 481l-42 525q-137 137 -245 137q-171 0 -316 -67q-150 -181 -150 -310z" />
<glyph unicode="P" horiz-adv-x="1319" d="M152 4l22 1630h791q11 0 31 -8q9 -4 18 -30q190 -552 190 -724q0 -33 -8 -50q-18 -39 -35 -71q-16 -21 -26 -33q-24 -13 -49 -17q-18 -6 -77 -24q-151 -45 -374 -81q-129 -21 -228 -25q-61 -3 -61 -69v-143q0 -30 -1 -66l-1 -44v-228q0 -9 -6 -20q-3 -5 -19 -5h-159 l-8 -2v10zM344 837q0 -62 72 -62l141 19q33 7 154 30q105 20 202 44q87 22 87 113q-8 86 -51.5 221t-86.5 207q-23 61 -94 61q-142 0 -304 -33q-77 -6 -100 -87q-20 -160 -20 -513z" />
<glyph unicode="Q" horiz-adv-x="1495" d="M160 1489q-2 60 137 116q329 33 668 33q105 0 270 -57q9 -5 29 -23q63 -55 63 -138v-8l-29 -939l-45 -235q35 -38 115 -105q14 -7 34 -28q17 -14 17 -27l-2 -71q-2 -1 -5 -1q-30 1 -116 40.5t-112 62.5q-123 -107 -213 -107q-7 0 -29 4q8 0 -115 1t-254 1h-251 q-30 0 -45 24q-25 40 -31 115l-71 832zM374 1058q0 -27 10 -61l94 -610q19 -64 59 -75l338 -90q78 7 78 54q0 13 -4 26q-8 12 -15 17q-57 61 -109 129l-60 78q-10 13 -11 23q3 -4 18 -4h96q15 0 64 2q53 2 53 -13q22 -62 36 -80q8 -18 26 -18q30 0 31 47l49 290l-42 525 q-137 137 -245 137q-171 0 -316 -67q-150 -181 -150 -310z" />
<glyph unicode="R" horiz-adv-x="1372" d="M148 -3v9l21 1628h822q8 0 30 -9q15 -6 20 -27q189 -536 189 -725q0 -32 -8 -51q-22 -52 -48 -89q-14 -19 -24 -24q-13 -4 -34 -6l-165 -13l280 -687q0 -2 2 -6.5t2 -7.5q0 -5 -5 -7l-120 -66q-21 1 -33 5l-2 -4q-42 75 -107 212q-39 85 -141 298l-90 185q-8 57 -53 57 q-8 0 -16 -4l-152 -14q-18 4 -16 24l8 105q1 10 143 34q46 7 164 27q36 6 125 28q86 21 86 114q-11 92 -52 215.5t-86 201.5q-25 60 -93 60q-61 0 -137 -13q-54 -9 -215 -42q-70 -4 -98 -85q-17 -139 -22 -546q-1 -101 -2 -348q0 -48 -6 -425q0 -1 -2 -4h-165z" />
<glyph unicode="S" horiz-adv-x="1343" d="M152 1069l4 418q1 67 52 108q34 27 105 27h873q16 -2 21 -9q4 -10 5 -17l-27 -114q0 -28 -53 -30q-49 -5 -243 -24q-90 -8 -325 -31q-15 -1 -57 -7q-47 -9 -62 -43l-17 -29q-25 -34 -25 -76q0 -30 13 -55l-3 13q34 -41 116 -98q59 -40 213 -147q106 -74 383 -264 q99 -68 99 -193v-450q-1 -7 -7 -20q-15 -32 -50 -32l-995 4q-15 0 -16 12l12 130q5 18 22 37l738 52q82 6 82 90q0 72 -61 188q-38 25 -139 88q-82 49 -328 202l-276 175q-55 35 -54 95z" />
<glyph unicode="T" horiz-adv-x="1147" d="M78 1472l23 157q1 2 5 7q3 2 17 2h913q4 -1 13 -4l-1 -3v-159q-1 -7 -4 -16q-3 -3 -5 -3l-293 -70q-60 -14 -64 -124l-41 -1233q0 -12 -5 -24q-2 -2 -5 -2h-184q-6 8 -8 13l-23 1258q-1 55 -36 84q-37 26 -55 30l-227 57q-12 3 -16 6q-4 9 -4 24z" />
<glyph unicode="U" horiz-adv-x="1372" d="M156 1629q2 3 6 5h172q6 -11 6 -9l155 -1235q8 -63 42 -68h-2l403 -61q31 0 48 9q15 16 16 38l63 450l19 848q1 9 16 24q33 2 120 6q14 0 50 2l3 -2v-9l-2 -1057l-14 -517q-1 -34 -46 -50q-8 -3 -13 -3h-874q-42 0 -54 44q-18 66 -18 99l-80 853l-14 622q0 12 -2 11z" />
<glyph unicode="V" horiz-adv-x="1280" d="M95 1611q1 8 5 12q15 5 23 7h164q12 0 34 -12q16 -8 24 -48l217 -1033q5 -26 22 -96q21 -77 69 -77q66 0 106 166l207 869l61 152q30 75 67 75h179q-2 -24 -36 -105q-12 -31 -44 -110l-293 -1357q-4 -13 -21 -37q-12 -17 -29 -17l-410 -6q-15 2 -33 35l-231 1229 q-38 203 -81 353z" />
<glyph unicode="W" horiz-adv-x="2109" d="M71 1599l24 -25q0 11 46 11h129q5 -1 16 -4q25 -11 33 -56l192 -1081q36 -51 71 -51q34 0 63 45l213 1072q14 70 57 70q37 14 101 17q40 2 104 2q70 0 112 -2q10 -2 31 -13q14 -12 19 -45l191 -1175q26 -52 73 -52q34 0 63 44l184 1010l65 151q32 74 55 74h160 q28 0 28 -5q0 -27 -28 -78q-11 -11 -32 -42q-22 -42 -36 -113l-254 -1301q-1 -11 -17 -36q-9 -15 -22 -15l-360 -7q-8 0 -25 35l-180 1180q-17 114 -76 114q-33 0 -55 -44q-16 -32 -22 -54l-208 -1185q-2 -11 -16 -35q-9 -15 -22 -15l-359 -6q-7 1 -14 9q-9 13 -13 22 l-224 1334q-34 201 -67 250z" />
<glyph unicode="X" horiz-adv-x="1352" d="M78 1630q7 4 11 4l129 4h2q24 0 67 -24q38 -21 41 -49l215 -379q45 -105 114 -105q47 0 97 79l282 449q14 28 44 27q60 -2 163 -2q-1 -7 -2 -12q-8 -21 -42 -88l-283 -564q-13 -56 -13 -85q0 -52 18 -98l271 -695q30 -36 42 -93q-1 1 -3 1h-137q-8 0 -48 20q-19 8 -34 17 l-257 521q-45 91 -93 91q-36 0 -61 -38q-18 -22 -30 -51l-220 -525q-52 -31 -98 -33l-161 -8q0 -1 -1 -3q2 11 13 25l15 20q4 6 12 16q19 34 277 748q25 52 25 93q0 51 -33 98q-5 9 -36 70l-47 91q-33 63 -84 161l-115 219q-37 70 -38 98h-2z" />
<glyph unicode="Y" horiz-adv-x="1331" d="M199 1633q0 1 12 7l167 5q28 1 29 -15l68 -818q5 -62 39 -67l414 -61q59 0 64 47l53 533l31 373q1 3 9 3q124 0 164 19l-20 -14q6 0 23 -6q1 -1 1 -6l-2 -556l-14 -530q0 -57 -21 -241q-20 -175 -42 -271q-4 -17 -8 -26q-3 -5 -9 -5l-878 4q-2 0 -4 -1l75 155q2 9 8 12 q18 6 26 6q153 7 430 45q98 13 116 22q43 21 43 94v68q0 54 -57 54q-74 -9 -164 -9q-253 0 -445 64q-45 0 -58 41q-16 48 -17 90z" />
<glyph unicode="Z" horiz-adv-x="1343" d="M121 10q1 6 5 17q1 5 5 15q283 467 481 815q152 267 217 405q19 30 19 61q0 52 -51 73q-18 8 -36 9q-19 6 -254 19q-205 12 -287 25q-17 3 -34 10q-10 12 -12 22l-27 114q-4 12 -5 17q4 4 30 4h822q117 -11 170 -39q17 -21 17 -77q0 -55 -40 -137q-29 -60 -139 -275 q-30 -59 -186 -351l-150 -281q-36 -67 -97 -178q23 -12 30 -15q9 -23 53 -27l529 -49q9 0 21 -37l14 -129q0 -11 -18 -11l-1007 -4q-31 -6 -48 -6q-22 0 -22 10z" />
<glyph unicode="[" horiz-adv-x="512" d="M108 1597q25 8 89 19q91 15 153 15h32q31 -49 31 -63q0 -7 -5 -12q-45 -48 -161 -65v-78l1 -66l6 -1195q69 -14 148 -42q1 -5 5 -21q9 -33 9 -63v-17q-9 -1 -48 0q-99 3 -118 3q-5 -5 -11 -4q-36 0 -64 25.5t-29 61.5zM197 16v-51h5v51h-5z" />
<glyph unicode="\" horiz-adv-x="1065" d="M93 1581l6 1q66 0 105 17q15 9 25 9q13 0 20 -16q58 -137 158 -354l420 -912q41 -89 95 -215l18 -42q14 -33 14 -43q0 -7 -9 -12l-72 -2q-23 -1 -46 48z" />
<glyph unicode="]" horiz-adv-x="512" d="M88 59q0 20 66 48q44 18 103 25q1 34 4 144l36 1194q-87 22 -145 47q-1 2 -5 19q-8 32 -8 59q0 23 2 25q-3 -2 23 -2q47 0 139 -9q9 5 12 5q38 0 65 -28t27 -66l-15 -1499q-24 -7 -86 -15q-87 -11 -140 -11h-48q-3 5 -12 21q-18 31 -18 43zM355 1604h5v51h-5v-51z" />
<glyph unicode="^" horiz-adv-x="758" d="M128 1371q3 9 3 11q0 17 2 30l2 13q42 54 144 169l107 43q14 -10 51 -36q21 -15 79 -56q93 -63 135 -97l41 -67q8 0 5 -2q-7 -6 -7 -14l-308 113z" />
<glyph unicode="_" horiz-adv-x="1208" d="M-16 -176q0 4 6 16l27 96q1 36 11 46q19 10 56 10l1081 8q10 0 30 5q11 3 11 -5q0 -14 -8 -29l-19 -86q-1 -23 -10 -51q-3 -11 -22 -11q-5 1 -20 5l-1104 -8q-14 -2 -28 -3q-11 -2 -11 7z" />
<glyph unicode="`" horiz-adv-x="614" d="M101 1611q5 11 16 31l227 -5l210 -166q20 -7 46 -23q12 -9 14 -17l-14 -95l5 -6l6 20q1 1 3 6q-160 33 -279 89q-107 50 -213 147l-12 11q-3 3 -9 8zM604 1328l1 2l1 -2h-2z" />
<glyph unicode="a" horiz-adv-x="1116" d="M111 68q7 214 13 319q12 206 38 315q14 23 26 37q6 7 34 19q104 16 264 37q195 25 229 25q55 0 55 56q0 37 -33 98l1 -2q-13 24 -103 37q-95 14 -387 43q-6 1 -46 2q4 16 14 43q21 56 29 70.5t18 16.5q117 6 224 6q181 0 296 -14l17 16q0 -3 1 -12q17 0 43 -9 q57 -20 87 -88q62 -143 82 -431q9 -130 9 -244q0 -47 -5 -146t-6 -145q-1 -62 -33 -82q-40 -25 -62 -29l-726 -6h-2q-72 0 -77 68zM266 232q0 -66 68 -66q306 0 398 4q104 5 104 117v13q-4 58 -14 204q-5 78 -10 168q-232 -8 -277 -13q-96 -10 -170 -45q-45 -22 -48 -56 q-16 -24 -26 -61q-25 -92 -25 -265z" />
<glyph unicode="b" horiz-adv-x="1157" d="M151 1605q3 2 5 2q53 11 141 20q5 0 10 -2l3 -1q14 -70 21 -246q11 -249 11 -254q258 42 414 42q99 0 141 -11q15 -4 48 -18q14 -6 33 -30q14 -18 17 -76q16 -72 16 -311q0 -326 -39 -653q-20 -67 -70 -81q-321 8 -552 8h-76q-27 0 -35 26q-13 43 -13 76q-19 13 -29 178 q-4 58 -16 367q-10 245 -15 479l-10 458q-4 34 -5 27zM360 856l21 -462q2 -52 16 -108q2 -10 7 -28q11 -31 45 -44l268 -43q26 0 54 13q23 18 29 36q71 224 71 464q0 93 -8.5 158t-17.5 97q-63 63 -183 63q-114 0 -241 -51q-16 -20 -37 -43q-25 -35 -24 -52z" />
<glyph unicode="c" horiz-adv-x="1085" d="M166 951q0 67 37 136q1 26 34 41q47 21 68 24q28 0 123 8l190 16q48 4 168 4q53 0 81 -3q8 3 23 5h38q6 0 56 -4l-4 -13q-20 -65 -45 -142q-1 -2 -4.5 -4.5t-8.5 -2.5q-9 0 -16 3q-80 9 -154 9q-177 0 -292 -48q-104 -98 -104 -206q0 -28 2 -44l61 -500q177 -60 535 -60 h62q14 0 14 5l-4 -16q-2 -69 -31 -148q0 -5 -3 -10q-2 2 -5 3l-651 -4q-65 0 -89 49q-28 57 -35 103q-11 32 -19 130q-25 299 -25 592v44q-2 18 -2 33z" />
<glyph unicode="d" d="M156 730q0 239 16 311q3 59 17 76q20 25 33 30q31 29 190 29q164 0 414 -43l30 492v8q3 1 13 5q92 -10 143 -21q4 0 6 -1q-3 -9 -3 -7q-1 -5 -4 -19q-2 -133 -8 -404l-10 -475q-3 -154 -23 -424q-2 -42 -8 -125q-4 -44 -20 -53q0 -43 -12 -80q-8 -24 -37 -25t-369 -4 q-200 -2 -259 -4q-28 8 -45 35q-21 33 -25 46q-29 295 -35 477q-4 126 -4 176zM297 694q0 -49 8 -139q15 -169 62 -324v1q13 -51 84 -51l270 43q43 22 49 76q41 379 41 517q0 43 -4 51q0 16 -24 50q-20 22 -37 43q-120 51 -240 51q-123 0 -185 -64q-2 -8 -14 -98 q-10 -75 -10 -156z" />
<glyph unicode="e" horiz-adv-x="1239" d="M136 525v77q0 -1 2 59q1 31 2 71l8 341q0 36 10 46q14 13 21 14q136 65 491 65q296 0 329 -33q23 -23 46 -102q54 -184 54 -388q0 -110 -21 -136t-132 -46q-258 -47 -531 -53q-88 -2 -88 -52q0 -19 15 -40q34 -176 374 -186l360 -11q4 1 11 1v-18q-14 -138 -55 -138 l-725 4q-4 0 -12 -2t-12 -2q-76 0 -120 186q-27 114 -27 343zM301 735q0 -93 30 -132q20 -26 65 -27q18 -2 57 -2q115 0 239 20q174 29 210 83q45 67 45 143q0 88 -62 182q-29 44 -97 54q-487 0 -487 -321z" />
<glyph unicode="f" horiz-adv-x="799" d="M136 1077q0 63 2 118q1 22 11 22q27 4 95 7l-4 354q0 29 15 29q233 27 374 27q118 0 173 -10q5 0 11 -2q-10 -37 -28 -113q-2 -11 -17 -40h-24q-42 4 -109 4q-83 0 -134 -11q-16 -6 -42 -23q-27 -27 -27 -64v-147q66 -3 183 -16q13 0 13 9q0 -6 -9 -22q-17 -46 -43 -139 l-14 4q-83 0 -111 -76q-23 -63 -23 -147v-1101q0 -19 -16 -28l-141 -80l-23 1216q-2 126 -32 166q-34 46 -62 46q-11 0 -18 17z" />
<glyph unicode="g" horiz-adv-x="1085" d="M148 236v106q0 314 58 773q4 9 28 48q16 25 44 31q205 -12 614 -34l-2 2q16 -2 49 -16q9 -11 9 -65q15 0 12 -48q-6 -91 -6 -135v-11l6 -385q8 -513 8 -757q-21 -55 -55 -77q-21 -14 -31 -16q-102 -23 -206 -23q-161 0 -357 55q-9 1 -11 6q-7 16 -7 26l-15 83q4 -1 8 -3 q153 -28 312 -28q76 0 129 7q46 1 59 43q10 33 9 53q-2 41 -2 94q-20 64 -84 64q-176 -23 -301 -23q-121 0 -187 21q-26 0 -47 68q-26 85 -34 141zM286 441q0 -127 17 -203q61 -68 199 -68q111 0 220 42q24 21 41 39q28 29 28 74q-12 0 -12 11q0 13 5 39.5t5 40.5v347 q-9 36 -21 108q0 61 -49 77l-264 54q-25 0 -50 -13q-29 -16 -33 -38q-86 -253 -86 -510z" />
<glyph unicode="h" d="M179 1628q3 3 6 3q47 14 144 32q7 0 8 -15q3 -79 21 -444q16 -60 79 -60q76 8 198 8q94 0 142 -2q7 0 21 2t21 2q84 0 164 -27q44 -15 59 -399q8 -211 8 -390q0 -143 -2 -232l-4 -178q-1 -50 -2 -154q0 -18 -4 -94q0 -6 -3 -15q-1 -1 -8 -3l-105 -30q-3 5 -6 11 q0 792 -41 1098q-8 62 -33 163q-9 20 -21 31q-30 45 -140 48q-20 1 -39 1q-131 0 -203 -31q-63 -65 -63 -92v-230q0 -18 -4 -340q-2 -172 -6 -283q0 -4 -2 -9h-14h-130l-2 -2l-5 15q-12 229 -20 925l-8 667q-4 17 -6 24z" />
<glyph unicode="i" horiz-adv-x="461" d="M131 65l17 1035q0 28 9 39q7 6 20 15l172 67q0 -4 -1 -15q-2 -57 -8 -231l-23 -700q-3 -64 -8 -237q0 -10 -5 -25q-6 -5 -11 -11q-26 0 -76.5 -1t-76.5 -1q-2 4 -3 9q-6 18 -6 47v9zM156 1307q-1 -2 -1 -4q0 -4 3 -7l39 325l10 3l110 17l14 -241q1 -13 -4 -20q0 -3 -4 -8 l-165 -64l-2 1v-2zM348.5 1222q-0.5 0 0.5 3q0 -3 -0.5 -3z" />
<glyph unicode="j" horiz-adv-x="451" d="M-45 -197q1 -3 10 -3q102 0 142 9q31 7 48 27q36 42 36 148v40q0 11 -2 24l-6 1049q0 46 26 53l157 59v-15l-16 -1508q0 -25 -25 -34q-105 -21 -165 -21q-26 0 -88 9q-37 2 -82 13q-5 8 -7 15zM180 1312l35 306q3 2 6 2l114 17l15 -236q1 -11 -3 -21l1 3q-1 -3 -9 -10z " />
<glyph unicode="k" horiz-adv-x="1147" d="M167 1637q2 1 5 1l152 2q22 0 22 -9q0 -8 -6 -22q-5 -64 -9 -142q-12 -224 -14 -456l-2 -407q374 52 435 119q65 16 88 166q24 157 27 244q-6 26 -6 40q0 3 27 21q34 3 118 3q24 0 24 -59q0 -76 -38 -252q-48 -222 -125 -271q-19 -5 -66 -26q-29 -13 -98 -48l298 -563 q-2 -1 -4 -1q-11 -7 -97 -77q-24 0 -38 5q-61 98 -150 264l-141 264q-11 53 -55 53h-12q-8 -3 -13 -5l-174 -26l2 -448q-2 -1 -6 -6h-139v8l-4 1615q0 13 -1 13z" />
<glyph unicode="l" horiz-adv-x="524" d="M160 57l6 1506q1 7 36 32q46 27 89 27q38 0 38 -31q0 -90 16 -271q15 -173 15 -261v-11q-2 -155 -16 -492q-5 -103 -13 -370v-15q0 -119 46 -157l-2 1l3 -3l6 -8q1 -2 1 -4h-211q-14 0 -14 57z" />
<glyph unicode="m" horiz-adv-x="1626" d="M147 -3q0 1 5 1l2 775l10 373q3 8 14 19q3 6 22 14q5 11 11 15h10q18 0 32 -6q89 0 208 -2q274 -5 856 -32q34 -2 34 -24q31 -3 39 -31l76 -642l20 -458q2 -1 3 -2l-131 -1l-139 865q-8 50 -36 54h1l-238 40q-56 0 -56 -53q0 -25 -2 -218q-2 -233 -4 -322l-4 -225v-49 v-50q0 -14 -4 -36l-111 -6q-1 16 -3 55l-57 808q-4 53 -47 56l-229 49q-51 0 -59 -51l-45 -295l-39 -601q-2 -7 -8 -15q-36 -1 -128 -6z" />
<glyph unicode="n" horiz-adv-x="1126" d="M147 -3q0 1 5 1l2 776l10 372q4 10 14 20q4 6 12 12q25 10 93 10h201l425 -30q2 -1 5 -10q10 -28 11 -42l62 -646l12 -456q2 -8 2 -5l4 3q-1 -1 -4 -2h-130l-139 886q0 51 -37 57l-265 45q-54 0 -56 -41l-49 -329l-39 -601q-2 -7 -8 -15q-36 -1 -128 -6z" />
<glyph unicode="o" horiz-adv-x="1106" d="M146 1109q-1 21 32 36q42 19 68 25q222 26 495 26q125 0 191 -24q47 -29 47 -105v-676l-29 -370q-1 -17 -24 -17h-41h-43q-65 1 -252 4l-230 2q-54 0 -85.5 1t-16.5 1q-41 0 -49 91l-53 625zM307 786q0 -22 7 -47l64 -415q2 -77 122 -98l200 -35q25 0 54.5 17.5 t30.5 40.5l49 323l-2 396q-66 66 -189 66q-137 0 -236 -51q-100 -81 -100 -197z" />
<glyph unicode="p" horiz-adv-x="1126" d="M158 -359q1 6 4 21v423q0 509 20 820l7 112q3 40 18 48q0 34 14 79q8 26 89 30q51 -1 103 -1l469 17q32 -8 47 -32q21 -34 25 -49q51 -408 51 -723q0 -185 -12 -240q-3 -62 -17 -80q-17 -21 -32 -31q-43 -29 -207 -29q-149 0 -395 36l-21 -276q-3 -41 -4 -94q0 -6 -4 -12 q-33 -5 -78 -12q-58 -13 -75 -13q-2 1 -2 6zM352 370q0 -58 3 -71q4 -18 26 -42q5 -6 18 -21l18 -21q108 -47 230 -47q131 0 195 65q10 43 17 114q4 39 4 116q0 245 -78 486q-9 51 -85 51l-269 -50q-47 -19 -48 -72l-21 -110l-6 -193q-4 -129 -4 -205z" />
<glyph unicode="q" horiz-adv-x="1106" d="M146 450q0 160 16 393q8 115 23 259q5 19 22 50q17 24 46 32q126 0 255 -2l258 -4q25 0 107 -2q21 -1 30 -13q20 -35 20 -92q17 -9 24 -78q3 -27 11 -194q16 -319 23 -600l5 -204q4 -158 5 -325q4 -16 4.5 -20t1.5 -5l1 1q-1 -1 -3 -2q-22 0 -71.5 9.5t-75.5 9.5 q-10 0 -10 13q-2 53 -8 130l-6 75q-4 39 -16 165q-251 -42 -415 -42q-154 0 -183 25q-12 6 -30 31q-15 20 -18 78q-16 70 -16 312zM284 485q0 -159 26 -254q58 -63 182 -63q127 0 237 51q53 53 62 78q8 18 8 81q0 101 -8 207q-4 53 -16 186q-5 26 -13 68l-7 34q0 2 -1 4 q0 53 -51 78l-267 43q-75 0 -82 -52q-70 -225 -70 -461z" />
<glyph unicode="r" horiz-adv-x="717" d="M142 1171q-1 24 13 24l199 23v-42q108 24 164 34q81 15 144 15q3 -7 3 -16l-4 -111q0 -5 -1 -10q-96 -19 -180 -54q-124 -52 -130 -111q0 -37 -15 -249q-5 -68 -28 -436l-15 -238q-3 -1 -7 -4h-135q-4 1 -4 8l8 901z" />
<glyph unicode="s" horiz-adv-x="1044" d="M140 792l2 314q0 30 22 65q18 29 86 29h638q5 -1 8 -3q2 -6 3 -10l-19 -84q0 -16 -35 -18q-50 -10 -128 -15l-129 -8q-52 -7 -155 -17q-71 -7 -91 -36q-22 -32 -26 -52q-7 -14 -7 -35q0 -23 11 -44l-2 7q4 -18 520 -382q71 -50 71 -136v-340q-1 -9 -8 -21q-5 -8 -27 -8 l-727 2q-5 0 -5 2l10 98q2 10 10 21l536 39q68 5 68 73q0 66 -48 147q-54 36 -150 97q-55 34 -193 122l-200 130q-35 23 -35 63z" />
<glyph unicode="t" horiz-adv-x="614" d="M86 1070q0 72 2 123q1 19 18 30q25 3 49 6q30 5 38 25q6 15 6 26q0 88 14 223q3 34 11 105q1 2 2 2q6 6 8 6l134 14q5 -50 15 -190q3 -41 6 -102q2 -41 2 -68q20 -13 26 -18q9 -10 25 -20l128 -14q5 0 9 -2q-1 -3 -5 -12q-6 -26 -34 -132q0 -9 -1 -10q-13 -6 -21 -6 q-131 0 -131 -229v-819q0 -7 4 -5q-1 -1 -4 -3h-156l-3 4l-21 835q-3 129 -28 166q-32 47 -75 47q-8 0 -9 3q-7 9 -9 15z" />
<glyph unicode="u" d="M150 1184h130l139 -888q1 -23 12 -36q9 -17 24 -19l266 -45q54 0 56 41l49 328l39 603q1 5 4 9l4 5q35 1 126 6v-2l-2 -776l-10 -378q0 -15 -12 -23q-20 -9 -29 -9h-672q-28 0 -35 26q-13 47 -13 71l-62 627l-12 456q0 2 -2 4z" />
<glyph unicode="v" horiz-adv-x="1004" d="M93 1173q0 11 4 14t9 5h132q32 0 41 -39l173 -753q27 -42 66 -42q34 0 58 37l153 589l56 154q18 50 46 50h173q0 -14 -24 -59q-38 -50 -60 -146l-219 -950q-2 -5 -14 -24q-7 -9 -19 -9l-324 -4q-12 0 -21 22l-203 996q-4 30 -14 98q-13 49 -13 61z" />
<glyph unicode="w" horiz-adv-x="1915" d="M105 1166q0 30 10 30h129q9 0 27 -9q8 -3 14 -30l173 -826q9 -15 25 -25q19 -16 41 -16q34 0 58 36l194 818q11 47 51 47q6 4 14 5q60 10 167 10q41 0 103 -2q11 0 28 -8q9 -4 15 -31l173 -828l23 -24q20 -14 43 -14q30 0 57 35l173 713l40 103q19 50 47 50h156 q32 0 34 -1q0 -20 -33 -62q-12 -9 -27 -28q-19 -19 -30 -66l-235 -1009q-2 -8 -14 -26q-6 -7 -19 -7l-323 -5q-5 2 -18 19l-4 5l-161 907q-27 88 -69 88q-28 0 -50 -34q-12 -18 -23 -41l-187 -914q-11 -34 -33 -34l-324 -4q-10 0 -21 21l-209 1059q-15 76 -15 98z" />
<glyph unicode="x" horiz-adv-x="1208" d="M100 1193q3 1 4 1l115 2h3q46 0 49 -27l253 -312q42 -84 92 -84q49 0 89 73l254 329q9 19 38 19h154q0 9 -9 9q0 -4 -41 -71l-254 -412q-30 -27 -30 -69q0 -45 32 -84l248 -512q24 -24 34 -55h-121q-8 0 -27 10q-10 4 -19 10l-266 395q-38 81 -82 81q-34 0 -54 -39 q-16 -31 -20 -44l-232 -384q-26 -26 -57 -27l-138 -5l2 2q12 12 27 26q45 64 184 370l64 120q45 88 45 120q0 42 -33 75l-272 420q-26 40 -32 63z" />
<glyph unicode="y" horiz-adv-x="1096" d="M138 237v105q0 346 69 838q0 7 4 18h4q5 -1 10 -4q115 -6 131 -8q1 -2 1 -4q-1 -6 -3 -14q-19 -99 -47 -388q-17 -169 -23 -244l-8 -94v-13q0 -32 6 -106q3 -31 10 -85q62 -68 200 -68q118 0 220 42q23 25 47 49q22 29 22 64q-12 0 -12 11q0 13 5 39.5t5 40.5v345 q-1 20 -9 195l-10 216q0 4 1 7q7 2 11 2q66 13 127 13q23 0 28 -30q22 -123 25 -323q0 -109 2 -326l4 -770q-21 -54 -55 -77q-21 -14 -31 -16q-104 -23 -206 -23q-159 0 -356 55q-9 1 -12 7q-7 15 -7 25l-15 83q4 -1 8 -3q150 -28 312 -28q78 0 129 7q46 1 59 43q9 29 9 52 q0 26 -2 95q-21 64 -84 64q-177 -23 -301 -23q-121 0 -187 21q-46 0 -81 210z" />
<glyph unicode="z" horiz-adv-x="1106" d="M127 8q3 3 10 14q37 60 144 231q111 177 218 353.5t166 298.5q15 31 15 48q0 36 -32 56q-23 10 -40 11q-174 13 -401 32q-6 1 -39 14l-21 112q-3 6 -3 10q3 -4 18 -4h655q67 0 96 -12q13 -5 26 -14q15 -15 15 -53q0 -68 -15 -99q-13 -26 -74 -138q-31 -58 -121 -220 q-43 -75 -152 -268l-80 -144q0 -23 9 -39q12 -12 34 -14l401 -37q6 0 12 -21l11 -115q-1 -2 -8 -2l-795 -4q-46 0 -49 4z" />
<glyph unicode="{" horiz-adv-x="860" d="M167 608q8 13 26 59q11 26 41 100q30 79 69 170q37 19 61 25l-55 -430l73 -307q3 1 3 6q-28 0 -45 7q-46 48 -135 250zM474 631q18 32 92 208q40 95 49 113q34 20 55 27l-54 -425l73 -308q5 0 5 10q-33 0 -55 10q-27 29 -66 113l-61 132z" />
<glyph unicode="|" horiz-adv-x="1997" d="M37 1472l23 156q0 10 22 10q-2 0 444 2q94 0 340 2l1102 7q4 -1 13 -5l-1 -3v-159q0 -7 -4 -16q-3 -3 -5 -3l-294 -69q-60 -14 -64 -125l-41 -1233q-1 -26 -9 -26h-177q-6 0 -15 13l-23 1259q-2 93 -92 114l-255 58l-296 -72q-60 -15 -64 -123l-41 -1233q0 -12 -5 -24 q-2 -2 -5 -2h-184q-6 8 -8 13l-23 1258q-1 57 -36 84q-30 23 -54 29l-228 58q-12 3 -16 6q-4 9 -4 24z" />
<glyph unicode="}" horiz-adv-x="819" d="M165 985l40 -10q48 -49 134 -245l39 -120q-6 -11 -36 -81q-16 -36 -58 -131q-33 -77 -46 -100q0 -5 -55 -27l53 416zM473 1004q18 -4 48 -17q45 -50 126 -234l38 -120q-25 -47 -67 -152q-46 -117 -63 -145q-31 -32 -66 -48l54 421z" />
<glyph unicode="~" horiz-adv-x="2048" d="M125 941q0 65 37 134q1 26 34 40q47 20 68 24q22 0 123 8l190 15q51 4 168 4q53 0 81 -2q11 4 23 4h38q6 0 56 -4l-4 -13l-30 -97q-11 -34 -14 -41l-4 -6q-4 -2 -10 -2q-9 0 -16 3q-80 9 -154 9q-177 0 -292 -48q-104 -97 -104 -203q0 -28 2 -44l61 -495q34 -6 139 -20 q274 -36 577 -36l-4 1468l4 -1l151 2q8 0 23 -5l-1 -4q0 -8 -6 -22q-6 -77 -8 -121l-8 -200q-10 -250 -10 -684q376 52 437 119q68 17 90 166q19 125 24 244q-9 37 -6 49q10 4 29 12q35 3 116 3q25 0 24 -64q-1 -75 -38 -247q-18 -85 -56 -172q-33 -77 -68 -99 q-19 -5 -66 -26q-26 -11 -98 -48l295 -565q-12 -6 -98 -76q-23 1 -32 4q-4 0 -5 -3q-54 88 -151 268l-142 264q-14 53 -54 53h-17q-6 -3 -9 -5l-175 -26l2 -448q-1 -2 -4 -5l-938 1q-65 0 -89 49q-29 57 -35 100q-11 30 -19 129q-25 296 -25 584v43q-2 18 -2 33z" />
<glyph unicode="&#xa6;" horiz-adv-x="512" d="M160 57l2 650l9 11q2 3 97 6l60 2l4 -8q9 -10 8 -44l-13 -617q-1 -52 -21 -53l-133 -4q-13 0 -13 57zM163 904l3 659q2 3 19 14q69 45 139 45q39 0 38 -30l-12 -510q0 -19 -1 -73l-3 -85q2 -14 2 -35q0 -27 -6 -36q0 -2 1 -2.5t1 -1.5q11 0 -31 1h-32q-61 0 -99 -5 q-9 0 -12 7q-7 18 -7 52z" />
<glyph unicode="&#xa7;" horiz-adv-x="1085" d="M129 -3q7 14 31 140q0 12 4 14q15 5 19 5q91 -4 192 -4q359 0 359 82q0 10 -5 17q5 20 5 42q0 130 -162 201l-41 18q-14 6 -36 12h-6q-14 0 -82 16q-218 52 -218 225q12 137 55 243q8 21 14 26q12 12 52 26q-85 45 -115 68q-39 30 -49 107q-3 9 -8 59l-7 67q0 176 97 239 q28 18 91 18h43q18 0 40 -2q57 0 89 4h455q5 0 13 -3q0 5 -7 7q-2 -3 -5 -8l-39 -115q-1 -4 -10 -11q-9 -10 -34 -10q-260 0 -414 -27q-64 -11 -93 -35l41 -20q-25 25 -40 19q-8 -3 -14 -15q-15 -21 -15 -50q0 -137 284 -294q83 -30 166 -64q95 -39 116 -57l30 41q-3 1 -6 4 l-4 3q-5 -12 -15 -41q-3 -10 2 -17q46 -76 46 -171q-3 -18 -9 -46q-14 -61 -14 -72t3 -20q-16 -27 -23 -32q-14 -10 -109 -51q62 -28 82 -46q27 -24 49 -81q11 -28 19 -162l2 -34v-50q0 -48 -7 -75q-20 -79 -73 -79l-725 -4q-14 0 -14 -9q0 2 1 5zM331 859q0 -46 58 -103 q98 -96 241 -102q63 -2 118 13q65 18 65 63q0 53 -74 103.5t-156 85.5q-85 36 -108 36q-34 0 -82 -16q-62 -20 -62 -80z" />
<glyph unicode="&#xad;" horiz-adv-x="834" d="M158 568q1 3 8 29l29 103q0 34 12 42q18 11 63 12l406 8q32 1 47 -3q-2 -10 -9 -27l-20 -98q0 -17 -11 -43q-7 -17 -28 -17q-7 0 -19 7l-433 -10q-14 0 -33 -6q-12 -4 -12 3z" />
<glyph unicode="&#xb0;" horiz-adv-x="492" d="M94 1527q-1 54 7 78l6 12l25 6q33 8 119 8q82 0 135 -20q12 -5 12 -101q0 -112 -17 -165q-3 -11 -12 -13q-59 -16 -122 -16q-115 0 -129 18q-23 112 -24 193zM138 1471q0 -85 52 -109q26 -12 65 -12q103 0 103 132q0 113 -113 113q-62 0 -84.5 -29.5t-22.5 -94.5z" />
<glyph unicode="&#xb2;" horiz-adv-x="614" d="M86 1195q-1 15 7 26q11 15 21 22l11 8l15 10q0 17 27 22.5t79 17.5q124 30 139 30q46 16 46 68q-12 77 -61 164q-16 28 -45 33q-40 16 -96 16q-61 0 -113 -20q-5 -2 -16 -2q-4 17 -11 50q3 -2 4 -1q4 4 9 8h301q6 0 8 -7q78 -232 80 -296q0 -5 -4 -19q-2 -2 -11 -3 q-52 -17 -140 -41q-113 -20 -145 -39q-52 -31 -52 -66v-8l6 -60q7 -29 35 -48q19 -13 90 -13q21 0 62.5 4.5t62.5 4.5q27 0 40 17q58 1 68 -4q-1 -10 -19 -59l-373 -6h-5l-4 6z" />
<glyph unicode="&#xb3;" horiz-adv-x="655" d="M99 1055v4q13 5 66 6q11 -14 47 -18l54 -4q41 -5 62 -5q60 0 86 18q53 36 53 112q0 58 -62 74q-14 4 -140 32l1 30q31 2 158 32q47 11 47 64q-21 132 -59 176q-7 15 -22 26q-12 5 -22 6q-41 20 -100 20q-62 0 -112 -18q-8 -3 -15 -3q-10 19 -10 41l-4 11q2 -2 5 -2 q4 3 10 6l299 -6q5 -1 6 -5q75 -233 75 -298q0 -9 -2 -17q-12 -25 -18 -34q-5 -3 -20 -6l-44 -32l56 -28q9 -6 18 -18q6 -8 6 -23l-37 -189l-5 -5q-2 -1 -3 -1h-356q-2 4 -5 12z" />
<glyph unicode="&#xb4;" horiz-adv-x="532" d="M133 1354l9 97q0 18 17 29l225 144l227 14q13 -15 28 -59l-5 11q-103 -2 -201 -44q-151 -65 -300 -192z" />
<glyph unicode="&#xc0;" horiz-adv-x="1352" d="M119 2q28 427 76 873q66 615 136 730q0 14 55 16l202 6q52 1 180 2l158 2q5 -1 14 -7q5 -2 6 -19q17 -78 54 -190l61 -187q88 -291 124 -510q29 -174 29 -355q0 -125 -4 -178q-2 -30 -16 -173q0 -3 -3 -10l-169 2q-4 1 -4 8q2 107 2 288q0 78 -78 77q-22 0 -268 -18 q-212 -15 -270 -25q-54 0 -71 -71q-6 -30 -25 -119q-15 -65 -26 -125q-4 -19 -10 -19zM360 595q0 -71 63 -69q235 7 500 30q65 6 65 76q-24 130 -151 539q-49 156 -61 185q-17 29 -38 41q-20 9 -31 9q-168 0 -203 -114zM379 1951q8 19 16 27l228 -4l210 -140q27 -10 45 -23 q8 -4 15 -11l-15 -81l6 -6q9 2 9 23q-323 61 -492 199q-9 7 -22 16z" />
<glyph unicode="&#xc1;" horiz-adv-x="1352" d="M119 2q28 427 76 873q66 615 136 730q0 14 55 16l202 6q52 1 180 2l158 2q4 -1 14 -7q5 -3 6 -19q17 -78 54 -190l61 -188q88 -292 124 -509q29 -174 29 -355q0 -125 -4 -178q-2 -30 -16 -173q0 -3 -3 -10l-169 2q-4 1 -4 8q2 107 2 288q0 77 -78 76q-41 -1 -268 -17 q-212 -15 -270 -25q-54 0 -71 -71q-6 -30 -25 -119q-15 -65 -26 -125q-4 -19 -10 -19zM360 595q0 -71 63 -69q235 7 500 30q65 6 65 76q-24 130 -151 539q-49 156 -61 185q-17 28 -38 41q-20 8 -31 8q-168 0 -203 -113zM365 1713v8l10 105q0 15 18 25l224 123l260 13 q14 -14 27 -48q2 -16 1 -17q-168 0 -407 -129q-79 -42 -133 -80z" />
<glyph unicode="&#xc2;" horiz-adv-x="1352" d="M119 2q29 429 76 874q65 613 136 730q2 2 12 8t43 7q55 3 202 7q52 0 180 2l158 2q5 -1 14 -8q5 -2 6 -19q17 -76 54 -189l61 -188q88 -292 124 -510q29 -175 29 -355q0 -125 -4 -178q-2 -30 -16 -173q0 -3 -3 -10l-169 2q-4 1 -4 8q2 107 2 288q0 78 -78 77 q-22 0 -268 -18q-212 -15 -270 -25q-54 0 -71 -71q-6 -30 -25 -119q-15 -65 -26 -125q-4 -19 -10 -19zM343 1731q4 6 4 8q0 14 3 37q12 13 144 143l107 36q41 -24 146 -86q57 -33 119 -74q7 -8 42 -56q7 0 4 -2q-7 -5 -7 -12l-307 97zM360 595q0 -71 63 -69q235 7 500 30 q65 6 65 77q-24 129 -151 538q-49 156 -61 185q-17 29 -38 41q-20 9 -31 9q-168 0 -203 -114z" />
<glyph unicode="&#xc3;" horiz-adv-x="1352" d="M119 2q29 429 76 874q65 613 136 730q0 13 55 15q92 4 202 6q55 1 180 3l158 2q5 -1 14 -8q5 -2 6 -19q17 -76 54 -189l61 -188q88 -292 124 -510q29 -175 29 -355q0 -125 -4 -178q-2 -30 -16 -173q0 -3 -3 -10l-169 2q-4 1 -4 8q2 107 2 288q0 78 -78 77q-22 0 -268 -18 q-212 -15 -270 -25q-54 0 -71 -71q-6 -30 -25 -119q-15 -65 -26 -125q-4 -19 -10 -19zM309 1847q-1 18 3 21q86 93 120 93q6 0 16 -2q58 0 149 -51l77 -43q26 -14 40 -14q35 0 107 64q10 9 33 29q8 -9 20 -25l-9 -67q-44 -50 -100 -83q-29 -17 -54 -17q-15 0 -23 5 q-78 50 -153 90q-18 10 -57 20q-53 0 -115 -80q-3 1 -4 3zM360 595q0 -71 63 -69q235 7 500 30q65 6 65 76q-24 130 -151 539q-49 156 -61 185q-17 29 -38 41q-20 9 -31 9q-168 0 -203 -114z" />
<glyph unicode="&#xc4;" horiz-adv-x="1372" d="M133 2q7 149 25 442q3 58 35 421q54 616 124 740q21 15 54 16l386 8q92 2 154 2q5 -2 15 -7q4 -2 5 -20q21 -63 130 -405q161 -503 161 -886q0 -92 -14 -301q0 -6 -2 -10l-178 2q-4 1 -4 8q0 152 -4 288q-2 77 -78 76q-40 -1 -258 -17q-206 -15 -260 -25q-17 -1 -36 -15 q-23 -13 -33 -58t-36 -164q-6 -30 -10 -78q-1 -6 -10 -19zM377 1782q-1 3 5 22q10 32 10 67q0 33 -7 75q-4 24 0 26q77 0 177 13q-8 -49 -25 -120l-24 -100zM385 640q0 -71 62 -68q195 9 380 22q72 5 92 8q31 4 51 24q13 22 13 53q-24 101 -52 208q-21 81 -76 265 q-43 147 -59 184q-33 49 -71 49q-212 0 -241 -116zM674 1782q-1 3 5 22q10 32 10 67q0 33 -7 75q-4 24 0 26q44 0 120 8l57 6q-8 -50 -25 -121l-24 -100z" />
<glyph unicode="&#xc5;" horiz-adv-x="1352" d="M119 2q28 426 76 873q65 615 136 730q0 14 55 16l202 6q52 1 180 2l158 2q5 -1 14 -7q5 -2 6 -19q17 -78 54 -190l61 -187q88 -291 124 -510q29 -174 29 -355q0 -125 -4 -178q-2 -30 -16 -173q0 -3 -3 -10l-169 2q-4 1 -4 8q2 107 2 288q0 77 -78 76q-41 -1 -268 -17 q-212 -15 -270 -25q-54 0 -71 -71q-6 -30 -25 -119q-15 -65 -26 -125q-4 -19 -10 -19zM360 595q0 -71 63 -69q235 7 500 30q65 6 65 76q-24 130 -151 539q-49 156 -61 185q-17 28 -38 41q-20 8 -31 8q-169 0 -203 -113zM471 1893q-1 45 6 64q2 6 7 14q91 12 144 12 q84 0 135 -17q12 -4 12 -88q0 -97 -17 -142q-3 -8 -12 -11q-61 -14 -122 -14q-115 0 -129 16q-23 96 -24 166zM515 1845q0 -73 52 -94q25 -10 65 -10q103 0 103 114q0 97 -113 97q-107 0 -107 -107z" />
<glyph unicode="&#xc6;" horiz-adv-x="1352" d="M62 2q0 3 5 17q9 25 9 52q0 94 15 339q38 620 77 937q19 157 48 224q6 15 27 43l12 11q6 1 23 4q169 8 275 8q194 0 335 16l88 10q35 4 211 4h102q3 -1 3 -4q0 -6 -2 -13l-30 -106q-3 -9 -9 -24q-6 1 -12 1q-114 -9 -186 -18q-83 -11 -116 -26q-48 -22 -85 -80 q-55 -87 -55 -282q0 -79 8 -113q4 -17 12 -62q37 -30 109 -26l142 7q50 2 108 -5q7 0 7 -145q-4 -37 -17 -37q-212 -20 -312 -82q13 -146 13 -271q0 -84 36 -108q104 -69 266 -69q23 0 106 6q-9 -1 -8 -7q9 -53 11 -145q0 -23 -7 -23q-72 -13 -181 -19l-135 -8q-32 4 -55 4 q-12 0 -36.5 -4t-36.5 -4h-91q7 0 5 11q-5 37 -20 52l7 -6q-18 23 -25 302q-55 -3 -218 -19q-193 -19 -227 -43l4 4q-19 -13 -23.5 -28t-10.5 -48q-10 -66 -42 -194q-12 -32 -14 -35zM272 591q0 -48 49 -46q138 6 258 22q23 3 43 3q18 0 23 -4l17 44q-3 -23 13 -23l-11 245 q6 10 6 21q-8 35 -20 106l-17 100q-8 46 -19 95q-19 84 -29 119q-24 89 -44 112q-16 18 -44 27q-29 0 -54 -11q-16 -7 -29 -7q-29 -33 -36 -65q-2 -9 -7 -33q-11 -74 -63 -429l-31 -216q-5 -35 -5 -60z" />
<glyph unicode="&#xc7;" horiz-adv-x="1004" d="M125 918q0 94 9 259q7 132 14 204q15 154 37 190q10 16 110 31q164 24 545 24h143q13 0 14 -2q0 -6 -2 -11l-41 -99q0 -11 -8 -22q-2 -3 -29 -8q-382 -21 -488 -102q-53 -41 -69 -102q-6 -11 -14 -31q-10 -27 -21 -116q-15 -123 -12 -218l12 -403q8 -283 174 -286 q190 -48 386 -48q51 0 68 2q5 1 13 4q1 -2 2 -15l8 -114q1 -12 -3 -19q-2 -1 -13 -2q-4 0 -146 -13q-46 -4 -46 -30q0 -10 13 -20q-5 -55 -29 -126q-43 -127 -48 -134q-18 -25 -57 -40q-31 -9 -88 -9q-45 0 -86 6q-50 7 -61 8q-15 0 -30 22l-27 137q11 -4 10 -4 q107 0 155 12q61 26 72 168q-64 0 -208 16q-168 18 -193 37q-8 6 -21 130q-7 67 -26 368l-17 270q-2 32 -2 86z" />
<glyph unicode="&#xc8;" horiz-adv-x="1188" d="M166 909q0 94 9 259q7 131 14 203q15 155 37 191q9 15 110 30q171 25 545 25h143q13 0 14 -2q0 -6 -2 -11l-41 -99q0 -11 -8 -23q-2 -3 -30 -7l-196 -11q-89 -6 -142 -15q-98 -15 -133 -42q-26 -15 -58 -50q-78 -86 -78 -278q0 -112 17 -170v1q12 -43 151 -43q-4 0 69 2 l73 2l56 2q31 1 151 -4q19 -1 19 -15v-110q-4 -21 -13 -28q-12 -7 -21 -8q-315 -20 -420 -77q-36 -19 -46 -35l-14 -73q-6 -31 -6 -70q0 -280 490 -280q25 0 151 7q1 -2 2 -19l8 -115q1 -12 -3 -19q-6 0 -14 -1q-90 -11 -251 -18l-190 -8q-37 -2 -246 36q-40 7 -80 19 q-9 7 -22 130q-7 64 -26 368l-17 269q-2 32 -2 87zM347 1960q8 18 16 27l227 -5l210 -140q19 -7 46 -20q12 -8 14 -14l-15 -81l6 -6q9 2 9 23q-88 16 -189 47q-191 58 -303 153q-14 12 -21 16z" />
<glyph unicode="&#xc9;" horiz-adv-x="1188" d="M166 909q0 94 9 259q7 132 14 204q15 154 37 190q10 16 110 31q164 24 545 24h143q13 0 14 -2q0 -5 -2 -10l-41 -100q0 -11 -8 -22q-2 -3 -30 -8l-196 -10q-108 -8 -195 -26q-80 -17 -138 -81q-78 -86 -78 -279q0 -112 17 -170v1q12 -43 151 -43q-4 0 69 2l73 2 q19 1 56 2q34 2 151 -4q19 -1 19 -14v-111q-4 -20 -13 -28q-12 -7 -21 -8q-319 -20 -420 -77q-36 -20 -46 -35l-14 -73q-6 -31 -6 -69q0 -281 490 -281q25 0 151 7q1 -2 2 -19l8 -115q1 -12 -3 -19q-6 0 -14 -1q-90 -11 -251 -18l-190 -8q-37 -2 -246 36q-40 7 -80 19 q-9 7 -22 130q-7 63 -26 369l-17 269q-2 32 -2 86zM336 1693v7l11 106q0 9 6 16q2 4 8 7l228 125l260 12q14 -12 25 -47l3 -18q-182 -3 -410 -126q-75 -41 -131 -82z" />
<glyph unicode="&#xca;" horiz-adv-x="1188" d="M166 909q0 93 9 259q7 132 14 204q15 156 37 191q10 15 110 30q164 24 545 24l7 51q0 -16 16 -20q-9 -12 -9 -17q1 -3 4 -3q24 0 124 -11q14 0 15 -2q0 -5 -2 -10l-41 -99q0 -11 -8 -23q-2 -3 -30 -7l-196 -11q-220 -17 -276 -55q-27 -19 -57 -52q-78 -86 -78 -278 q0 -113 17 -171v1q12 -43 151 -43q-4 0 69 2l73 2q19 1 56 2q34 2 151 -4q19 -1 19 -14v-111q-4 -20 -13 -28q-12 -7 -21 -8q-319 -20 -420 -77q-36 -20 -46 -35l-14 -73q-6 -31 -6 -69q0 -281 490 -281q25 0 151 7q1 -2 2 -19l8 -115q1 -12 -3 -19q-6 0 -14 -1 q-90 -11 -251 -18l-190 -8q-37 -2 -246 36q-40 7 -80 19q-9 7 -22 130q-7 63 -26 369l-17 269q-2 32 -2 86zM302 1731q4 6 4 8q0 14 3 37q12 13 144 143l107 36q41 -24 146 -86q57 -33 119 -74q7 -8 42 -56q7 0 4 -2q-7 -5 -7 -12l-307 97z" />
<glyph unicode="&#xcb;" horiz-adv-x="1178" d="M166 909q0 94 9 259q7 131 14 203q15 155 37 191q9 15 110 30q171 25 545 25h143q13 0 14 -2q0 -6 -2 -11l-41 -99q0 -11 -8 -23q-2 -3 -30 -7l-196 -11q-89 -6 -142 -15q-98 -15 -133 -42q-26 -15 -58 -50q-78 -86 -78 -278q0 -112 17 -170v1q12 -43 151 -43q-4 0 69 2 l73 2l56 2q31 1 151 -4q19 -1 19 -15v-110q-4 -21 -13 -28q-12 -7 -21 -8q-315 -20 -420 -77q-36 -19 -46 -35l-14 -73q-6 -31 -6 -70q0 -280 490 -280q25 0 151 7q1 -2 2 -19l8 -115q1 -12 -3 -19q-6 0 -14 -1q-90 -11 -251 -18l-190 -8q-37 -2 -246 36q-40 7 -80 19 q-9 7 -22 130q-7 64 -26 368l-17 269q-2 32 -2 87zM377 1782q-1 3 5 22q10 32 10 67q0 33 -7 75q-4 24 0 26q77 0 177 13q-8 -49 -25 -120l-24 -100zM674 1782q-1 3 5 22q10 32 10 67q0 33 -7 75q-4 24 0 26q44 0 120 8l57 6q-8 -50 -25 -121l-24 -100z" />
<glyph unicode="&#xcc;" horiz-adv-x="524" d="M61 1887q6 5 11 7q20 13 63 23q25 6 39 6q37 0 68 -34q25 -28 82 -68q16 -12 50 -35l37 -23q7 -2 16 -7q-4 -2 -9 -5q-51 -35 -119 -35q-37 0 -50 8q-110 67 -172 150q-12 10 -13 14q-2 -2 -3 -1zM160 15v41l6 1499q3 5 19 15q68 44 139 44q39 0 38 -30q-1 -77 -12 -507 l-10 -406q-2 -99 -7 -347l-6 -267q-1 -52 -21 -53l-133 -4q-11 0 -13 15z" />
<glyph unicode="&#xcd;" horiz-adv-x="524" d="M66 1666v6l10 105q0 16 19 25l152 123l192 12q13 -13 26 -48q3 -15 2 -16q-170 0 -336 -149q-29 -26 -65 -58zM160 15v41l6 1499q2 3 19 14q69 45 139 45q39 0 38 -31q-1 -81 -12 -507l-10 -405q-2 -99 -7 -347l-6 -267q-1 -52 -21 -53l-133 -4q-11 0 -13 15z" />
<glyph unicode="&#xce;" horiz-adv-x="524" d="M90 1720q0 -14 3 -15q0 9 9 36q11 32 13 40l137 141q20 9 35 9q20 0 30 -15q46 -70 102 -188q4 -8 57 -129q0 199 -36 199q-33 0 -33 -56v-7l-162 65zM160 15v41l6 1499q2 3 19 14q69 45 139 45q39 0 38 -31q-1 -73 -12 -506l-10 -406q-2 -99 -7 -347l-6 -267 q-1 -52 -21 -53l-133 -4q-11 0 -13 15z" />
<glyph unicode="&#xcf;" horiz-adv-x="512" d="M17 1782q-1 3 5 22q10 32 10 67q0 33 -7 75q-4 24 0 26q77 0 177 13q-8 -49 -25 -120l-24 -100zM160 15v41l6 1498q2 3 19 14q69 45 139 45q39 0 38 -31q-1 -77 -12 -506l-10 -405q-2 -99 -7 -347l-6 -267q-1 -52 -21 -53l-133 -4q-11 0 -13 15zM314 1782q-1 3 5 22 q10 32 10 67q0 33 -7 75q-4 24 0 26q44 0 120 8l57 6q-8 -50 -25 -121l-24 -100z" />
<glyph unicode="&#xd1;" horiz-adv-x="1505" d="M138 50l10 1504q0 39 9 51q13 8 23 8l312 6q96 2 111 -67l383 -1143q12 -35 31 -76q28 -59 66 -59q52 0 77 149q4 90 4 159q0 164 -11 454q-4 116 -8 261l-4 161q-1 57 2 95q0 34 16 50q17 13 30 18h134q42 0 41 -49l-29 -1505q-1 -58 -32 -59l-336 -6q-46 -1 -74 33 q-32 39 -38 59l-290 975q-61 206 -125 206q-61 0 -82 -156q0 -3 4 -23q1 -7 -14 -7l-19 -1014q0 -19 -12 -49q-7 -19 -42 -20l-106 -4q-16 -1 -21 11q-10 26 -10 37zM395 1848q0 15 5 19q106 94 150 94q6 0 20 -2q73 0 184 -52q120 -56 137 -56q35 0 88 38q24 17 84 56 q10 -9 26 -27l-9 -64q-57 -52 -123 -84q-37 -18 -70 -18q-20 0 -32 6q-45 23 -163 81q-36 17 -88 28q-61 0 -134 -80q-10 0 -15 5z" />
<glyph unicode="&#xd2;" horiz-adv-x="1454" d="M160 1481q-2 57 137 116q329 32 668 32q107 0 270 -57q6 -2 22 -15q45 -51 45 -133v-896l-39 -493q1 -10 -3 -22q-13 -7 -37 -7h-277q-138 2 -350 2h-274q-30 0 -45 24q-25 40 -31 114l-71 828zM346 1971l24 -35q13 37 25 51l270 -5l251 -141q18 -6 45 -19q11 -8 13 -14 l-19 -111q42 0 52 9l-18 -7q-3 53 -12 53q-424 77 -578 202q-14 8 -31 14q-16 3 -22 3zM374 1052q0 -26 10 -61l94 -606q5 -18 16 -39q16 -30 44 -36l405 -89q45 0 80 31q21 19 24 38l80 479l-42 522q-137 136 -245 136q-171 0 -316 -66q-150 -181 -150 -309z" />
<glyph unicode="&#xd3;" horiz-adv-x="1454" d="M160 1481q-2 57 137 116q329 32 668 32q107 0 270 -57q6 -2 22 -15q45 -51 45 -133v-896l-39 -493q1 -10 -3 -22q-13 -7 -37 -7h-277q-138 2 -350 2h-274q-30 0 -45 24q-25 40 -31 114l-71 828zM369 1712v9l10 105q0 16 17 24l253 124l289 13q14 -14 27 -48q3 -16 2 -17 q-175 0 -453 -130q-88 -41 -145 -80zM374 1052q0 -26 10 -61l94 -606q5 -18 16 -39q16 -30 44 -36l405 -89q45 0 80 31q21 19 24 38l80 479l-42 522q-137 136 -245 136q-171 0 -316 -66q-150 -181 -150 -309z" />
<glyph unicode="&#xd4;" horiz-adv-x="1454" d="M160 1481q-2 60 137 116q329 32 668 32q105 0 270 -56q7 -4 22 -16q45 -51 45 -133v-896l-39 -493q1 -10 -3 -22q-13 -7 -37 -7h-277q-138 2 -350 2h-274q-30 0 -45 24q-25 40 -31 114l-71 828zM374 1053q0 -27 10 -61l94 -607q5 -18 16 -39q16 -30 44 -36l405 -89 q44 0 80 32q21 19 24 37l80 479l-42 522q-137 136 -245 136q-171 0 -316 -66q-150 -181 -150 -308zM425 1741q3 8 3 9q0 12 3 25l1 12q42 45 144 142l106 36q45 -31 133 -80q110 -62 133 -79q4 -3 40 -57h7l-4 -4q-4 -5 -4 -10l-307 97z" />
<glyph unicode="&#xd5;" horiz-adv-x="1454" d="M160 1481q-1 37 48 68q56 35 89 48q329 33 668 33q105 0 270 -57q7 -4 22 -16q15 -17 31 -47q14 -33 14 -86v-896l-39 -493q1 -10 -3 -22q-13 -7 -37 -7h-277q-138 2 -350 2h-274q-30 0 -45 24q-25 40 -31 114l-71 828zM374 1053q0 -27 10 -61l94 -607q19 -66 60 -75 l405 -88q45 0 80 31q21 18 24 37l80 479l-42 522q-137 136 -245 136q-171 0 -316 -66q-150 -176 -150 -308zM395 1848q0 15 5 19q106 94 150 94q6 0 20 -2q73 0 184 -52q120 -56 137 -56q35 0 88 38q24 17 84 56q10 -9 26 -27l-9 -64q-57 -52 -123 -84q-37 -18 -70 -18 q-20 0 -32 6q-45 23 -163 81q-36 17 -88 28q-61 0 -134 -80q-10 0 -15 5z" />
<glyph unicode="&#xd6;" horiz-adv-x="1454" d="M160 1481q-2 60 138 116q84 17 297 24q241 8 370 8q105 0 270 -56q7 -4 22 -16q45 -51 45 -133v-896l-39 -493q1 -10 -3 -22q-13 -7 -37 -7h-277q-138 2 -350 2h-274q-30 0 -45 24q-25 40 -31 114l-71 828zM374 1053q0 -27 10 -61l94 -607q5 -18 16 -39q16 -30 44 -36 l405 -89q45 0 80 31q21 19 24 38l80 479l-42 522q-137 136 -245 136q-171 0 -316 -66q-150 -181 -150 -308zM459 1776q-1 3 5 19q10 28 10 60q0 33 -7 75q-4 24 0 26q61 0 177 12q-8 -46 -25 -113l-24 -96zM820 1776q0 2 6 19q10 28 10 60q0 33 -7 75q-4 24 0 26q29 0 111 6 q41 3 66 6q-8 -46 -24 -111l-24 -98z" />
<glyph unicode="&#xd8;" horiz-adv-x="1208" d="M133 1490q-1 59 107 116q68 8 155 8q109 0 282 -16l98 -9q31 0 38 24l-1 -4q2 5 51 5q74 0 118 -23q28 -15 28 -28q0 -7 -45 -97q37 -29 60 -50l21 -877l-40 -504q-2 -29 -27 -29h-221q-45 0 -145.5 22t-149.5 22q-34 10 -93 54q-45 -101 -58 -101q-4 1 -15 5h-121 q0 26 35.5 117t35.5 130l-101 725zM295 1062q0 -14 6 -62l60 -477l119 321l229 591q-176 0 -295 -68q-119 -180 -119 -305zM450 306l304 -83q29 0 57 21t32 49l64 481l-33 513q-169 -352 -235 -508q-24 -59 -86 -212q-21 -49 -67 -162l-4 -11q-11 -30 -32 -88z" />
<glyph unicode="&#xd9;" horiz-adv-x="1372" d="M156 1621q2 3 6 5h172q6 -10 6 -9l155 -1229q8 -63 42 -68l-2 1l403 -61q31 0 48 8q15 16 16 39l63 447l19 845q1 8 16 23q33 2 120 6q14 0 50 2l3 -2v-9l-2 -1051l-14 -515q-1 -34 -46 -50q-8 -3 -13 -3h-874q-42 0 -54 44q-18 65 -18 98l-80 849l-14 619q0 12 -2 11z M433 1910q4 9 16 27l227 -4l210 -140q22 -8 45 -22q8 -5 15 -12l-15 -81l6 -7q9 2 9 24q-320 60 -493 200z" />
<glyph unicode="&#xda;" horiz-adv-x="1331" d="M138 1609q0 11 8 15q-3 0 -4 1h171q5 2 3 2q3 -7 3 -11l156 -1229q3 -24 12 -41q9 -23 28 -26l403 -60q61 0 63 47l64 447l18 844q0 8 17 23q32 2 117 6q15 0 53 2l3 -2v-9l-2 -1051l-14 -514q-1 -34 -46 -50q-8 -3 -13 -3h-875q-71 0 -71 142l-80 848zM422 1717v8 l11 105q0 16 17 25l225 123l259 13q14 -14 27 -48q3 -16 2 -17q-179 0 -412 -129q-74 -41 -129 -80z" />
<glyph unicode="&#xdb;" horiz-adv-x="1372" d="M156 1621l6 4h172q6 -10 6 -9l155 -1228q8 -63 42 -68h-2l403 -60q31 0 48 8q15 16 16 39l63 447l19 844q1 8 16 23q32 2 120 6q14 1 50 2l3 -1v-10l-2 -1051l-14 -514q-1 -34 -46 -50q-8 -3 -13 -3h-874q-42 0 -54 44q-18 65 -18 98l-80 849l-14 618q0 12 -2 12z M435 1741q4 7 4 9q0 10 2 28l1 9q42 45 144 142l107 36q34 -22 62 -38l84 -48q38 -22 118 -73q3 -2 42 -57q8 0 5 -2q-7 -5 -7 -12l-307 97z" />
<glyph unicode="&#xdc;" horiz-adv-x="1372" d="M156 1621l6 4h172q6 -10 6 -8l155 -1229q8 -63 42 -68h-2l403 -60q31 0 48 8q15 16 16 39l63 447l19 844q1 8 16 23q32 2 120 6q14 1 50 2l3 -1v-10l-2 -1051l-14 -514q-1 -34 -46 -50q-8 -3 -13 -3h-874q-42 0 -54 44q-18 65 -18 98l-80 849l-14 619q0 12 -2 11z M486 1725q0 4 6 30q10 44 10 92q0 32 -7 75q-4 26 2 26t162 12l13 1q-6 -43 -25 -136l-24 -116zM783 1725q0 4 6 30q10 44 10 92q0 32 -7 75q-4 26 2 26t162 12l13 1q-6 -43 -25 -136l-24 -116z" />
<glyph unicode="&#xdd;" horiz-adv-x="1372" d="M168 1624q3 2 6 5l9 1l185 6q5 0 25 -6q4 -1 4 -8l98 -773q8 -61 42 -66h-2l403 -61q58 0 64 46l63 489l11 372q1 2 9 2q141 0 181 13l-17 -8q24 0 24 -12l-2 -553l-14 -527q0 -161 -12 -347q-7 -109 -20 -162q-2 -5 -9 -14q-2 -4 -9 -4l-829 -23q-16 0 -46 18 q-82 139 -82 197q0 36 3 58l8 2q43 -6 148 -11q16 -1 47 -4q33 -68 71 -70q60 -3 215 -11q45 -2 83 -2q123 0 152 51q17 31 17 175q0 52 -57 52q-76 -8 -165 -8q-145 0 -271 25q-62 12 -173 39q-45 0 -58 44q-14 48 -18 96zM443 1741l10 106q0 9 4 14t11 9l227 125l260 12 q12 -13 27 -48q2 -16 1 -17q-182 -2 -409 -126q-74 -40 -130 -81q-1 4 -1 6z" />
<glyph unicode="&#xdf;" horiz-adv-x="1229" d="M170 -292l2 1763q0 101 79 143l609 -12q38 -4 50 -38q35 -96 119 -349q70 -223 70 -339q0 -32 -8 -50q-30 -68 -60 -103q-17 -10 -50 -17q-25 -9 -25 -29q0 -18 40 -40q24 -13 45 -25q47 -39 48 -109l-99 -465q-4 -6 -19 -22q-11 -11 -33 -11h-369q-32 0 -32 12 q0 38 23 90l20 45q4 7 9 18q107 1 162 24q73 31 109 115q27 63 27 126q0 77 -43 111q-26 21 -118 48q-132 39 -220 60q-22 5 -20 25l8 105q1 12 34 14q22 5 281 75q86 23 86 113q-24 183 -137 380q-14 39 -50 52q-23 8 -39 9q-106 42 -235 42q-112 0 -115 -165 q-1 -113 -6 -432l-19 -1108q-1 -48 -42 -66l-58 -26q-13 1 -16 8q-8 18 -8 28z" />
<glyph unicode="&#xe0;" horiz-adv-x="1157" d="M131 68q8 227 33 516q5 58 20 111q15 35 47 50l11 5l246 39q141 22 247 22q56 0 56 54q0 38 -34 98q-12 20 -102 34q-81 12 -387 43q-8 0 -45 3q12 47 43 112q5 6 9.5 11t81.5 8q51 2 151 2q181 0 296 -14l17 15q-1 -3 0 -11q44 0 91 -36q24 -25 40 -60q90 -198 90 -667 q0 -138 -2 -187q-2 -56 -8 -99q0 -60 -31 -81q-39 -26 -65 -30l-725 -6q-73 -1 -80 68zM286 233q-2 -69 68 -69q308 0 399 4q108 5 103 128q0 12 -12 168q-3 67 -12 200q-328 -13 -394 -36q-20 -7 -55 -22q-42 -18 -46 -53q-15 -22 -25 -56q-19 -69 -26 -264zM306 1607 q4 9 16 27l227 -4l210 -141q27 -10 45 -23q8 -4 15 -11l-15 -81l6 -7q9 2 9 24q-315 54 -493 200q-7 6 -20 16z" />
<glyph unicode="&#xe1;" horiz-adv-x="1157" d="M131 68q8 227 33 516q5 58 20 111q14 35 47 50l11 5l246 39q141 22 247 22q56 0 56 55q0 37 -34 97q-12 20 -102 34q-81 12 -387 43q-8 1 -45 4q12 46 43 111q5 6 9.5 11t81.5 8q51 2 151 2q181 0 296 -14l17 15q-1 -2 0 -11q44 0 91 -36q24 -25 40 -60q90 -198 90 -667 q0 -138 -2 -187q-2 -56 -8 -99q0 -60 -31 -81q-39 -26 -65 -30l-725 -6q-73 -1 -80 68zM286 233q-2 -69 68 -69q308 0 399 4q108 5 103 128q0 12 -12 168q-3 67 -12 200q-325 -13 -394 -36q-44 -15 -62 -25q-36 -21 -39 -50q-15 -22 -25 -56q-19 -69 -26 -264zM363 1385 l8 84q0 10 4 14.5t11 8.5l227 126l228 12q12 -11 23 -41q-230 -5 -501 -204z" />
<glyph unicode="&#xe2;" horiz-adv-x="1157" d="M131 68q8 227 33 516q5 58 20 111q14 35 47 50l11 5l246 39q141 22 247 22q56 0 56 55q0 37 -34 97q-12 20 -102 34q-81 12 -387 43q-8 1 -45 4q12 46 43 111q5 6 9.5 11t81.5 8q51 2 151 2q181 0 296 -14l17 15q-1 -2 0 -11q44 0 91 -36q24 -25 40 -60q90 -198 90 -667 q0 -138 -2 -187q-2 -56 -8 -99q0 -60 -31 -81q-39 -26 -65 -30l-725 -6q-73 -1 -80 68zM286 233q-2 -69 68 -69q308 0 399 4q108 5 103 128q0 12 -12 168q-3 67 -12 200q-325 -13 -394 -36q-44 -15 -62 -25q-36 -21 -39 -50q-15 -22 -25 -56q-19 -69 -26 -264zM343 1402 q4 6 4 9q0 10 2 28l1 9q42 45 144 143l107 36q41 -27 61 -38q79 -44 203 -122q3 -2 42 -57q8 0 5 -2q-7 -5 -7 -12l-307 97z" />
<glyph unicode="&#xe3;" horiz-adv-x="1116" d="M111 68q7 209 13 314q12 206 38 312q13 22 26 36q7 7 34 20q86 14 264 36q198 25 229 25q55 0 55 55q0 37 -33 97l1 -2q-13 24 -103 37q-54 8 -387 42q-20 2 -46 2q4 17 14 43q20 52 29 70q5 7 18 15q122 7 224 7q181 0 296 -15l17 16q0 -3 1 -12q19 0 43 -8 q57 -19 87 -87q62 -141 82 -427q9 -129 9 -240q0 -47 -5 -145t-6 -143q-1 -63 -33 -82q-39 -24 -62 -28l-726 -6q-74 -1 -79 68zM252 1494q0 16 5 20q96 94 133 94q5 0 17 -2q64 0 224 -83q19 -10 24 -12l-2 1q27 -14 43 -14q14 0 36 11q32 12 79 52q17 14 38 30 q10 -9 23 -26l-9 -66q-47 -49 -110 -84q-32 -18 -60 -18q-16 0 -27 6q-41 23 -148 82q-34 18 -79 28q-57 0 -123 -80q-6 0 -10 4zM266 233q-2 -69 68 -69q306 0 398 4q110 5 104 128q-4 58 -14 202q-5 76 -10 166q-217 -7 -277 -13q-96 -10 -170 -44q-45 -21 -48 -56 q-16 -23 -26 -60q-20 -72 -25 -258z" />
<glyph unicode="&#xe4;" horiz-adv-x="1157" d="M131 68q8 227 33 516q5 58 20 111q14 35 47 50l11 5l246 39q141 22 247 22q56 0 56 55q0 37 -34 97q-12 20 -102 34q-81 12 -387 43q-8 1 -45 4q12 46 43 111q5 6 9.5 11t81.5 8q51 2 151 2q181 0 296 -14l17 15q-1 -2 0 -11q44 0 91 -36q24 -25 40 -60q90 -198 90 -667 q0 -138 -2 -187q-2 -56 -8 -99q0 -60 -31 -81q-39 -26 -65 -30l-725 -6q-73 -1 -80 68zM286 233q-2 -69 68 -69q308 0 399 4q108 5 103 128q0 12 -12 168q-3 67 -12 200q-325 -13 -394 -36q-44 -15 -62 -25q-36 -21 -39 -50q-15 -22 -25 -56q-19 -69 -26 -264zM369 1389 q-1 5 4 30q10 46 10 91q0 33 -7 76q-4 25 1 25q12 0 110 9q11 1 67 5q-8 -60 -25 -139l-25 -114zM666 1389q-1 5 4 30q10 46 10 91q0 33 -7 76q-4 25 1 25q12 0 110 9q11 1 67 5q-8 -60 -25 -139l-25 -114z" />
<glyph unicode="&#xe5;" horiz-adv-x="1116" d="M111 68q7 209 13 314q12 206 38 312q13 22 26 36q7 7 34 20q66 10 264 35q202 26 229 26q55 0 55 55q0 36 -33 97l1 -2q-13 23 -103 36q-74 11 -387 42q-21 2 -46 3q4 15 14 42q21 54 29 71q5 7 18 15q122 6 224 6q181 0 296 -14l17 16q0 -3 1 -12q19 0 43 -8 q57 -19 87 -87q62 -142 82 -427q9 -129 9 -241q0 -46 -5 -144t-6 -143q-1 -63 -33 -82q-39 -24 -62 -28l-726 -6q-74 -1 -79 68zM266 233q-2 -69 68 -69q306 0 398 4q110 5 104 128q-4 57 -14 202q-5 78 -10 166q-217 -7 -277 -13q-96 -10 -170 -45q-45 -22 -48 -55 q-16 -23 -26 -60q-20 -72 -25 -258zM415 1533q-1 45 6 64q2 6 7 14q91 12 144 12q84 0 135 -17q12 -4 12 -88q0 -97 -17 -143q-3 -9 -12 -12q-61 -13 -122 -13q-115 0 -129 16q-23 96 -24 167zM459 1484q0 -74 52 -95q25 -10 65 -10q103 0 103 115q0 98 -113 98 q-107 0 -107 -108z" />
<glyph unicode="&#xe6;" horiz-adv-x="1536" d="M94 68q3 214 18 424q11 152 23 212q17 37 42 54q54 12 212 37t183 25q49 0 49 56q0 35 -26 96l1 -2q-14 33 -247 62q-44 6 -149 20q-16 2 -35 0q3 16 13 45q28 83 28 90q-5 3 -11 3q0 9 -5 14l22 -20q20 2 58 4l-1 52q1 -49 11 -51q-4 0 29 1q82 2 197 -3q66 -3 119 -12 l15 14v-10q29 0 69 -35q58 26 114 36q99 18 257 18q233 0 258 -31q19 -23 37 -102q43 -184 43 -390q0 -104 -12 -126q-18 -35 -107 -56q-120 -28 -214 -36q-69 -5 -246 -24q-35 -5 -35 -36q0 -6 4.5 -25t4.5 -31q16 -38 34 -71q24 -44 53 -51q72 -51 217 -57l288 -11 q-2 2 3 5q2 -4 1 -21q-9 -139 -39 -139l-623 2q-5 -11 -5 -17t6 -6q-7 -2 -7 -10l-7 41l-582 -6q-36 0 -44 14q-14 25 -14 54zM208 236q-1 -46 30 -62q23 -12 98 -12q79 0 250 8q64 3 84 80q-12 77 -12 323v30q0 -3 -4 69q-165 -7 -227 -14q-99 -12 -136 -40 q-43 -32 -63 -123q-16 -71 -20 -259zM792 826q9 -89 13 -174q3 -78 63 -78h38q181 0 293 51q57 26 72 54q36 67 36 141q0 84 -50 180q-18 35 -80 56q-225 0 -310 -94q-53 -59 -75 -136z" />
<glyph unicode="&#xe7;" horiz-adv-x="1065" d="M125 953q0 66 37 135q1 26 34 40q48 21 68 24q28 0 123 8l190 16q48 4 168 4q53 0 81 -2q8 2 23 4h38q6 0 56 -4q-1 -3 -4 -13l-30 -98q-10 -34 -14 -41l-4 -6q-4 -2 -10 -2q-9 0 -16 3q-80 9 -154 9q-177 0 -292 -48q-104 -97 -104 -204q0 -28 2 -44l61 -495 q174 -59 535 -59h62q14 0 14 5l-4 -16q-2 -69 -31 -146q0 -5 -3 -10q-7 3 -5 3h-163q-3 -86 -31 -170q-43 -128 -48 -135q-18 -25 -57 -40q-31 -9 -88 -9q-45 0 -86 6q-50 7 -61 8q-14 0 -30 22l-27 138q-3 -3 10 -3q107 0 155 11q61 27 72 170l-297 -3q-64 -1 -89 50 q-29 58 -35 101q-11 31 -19 129q-25 297 -25 586v44q-2 17 -2 32z" />
<glyph unicode="&#xe8;" horiz-adv-x="1188" d="M136 519v76l2 59q1 30 2 70l8 336q0 36 10 46q14 13 21 14q138 64 491 64q296 0 329 -33q23 -23 46 -100q54 -182 54 -384q0 -113 -26 -139q-20 -21 -127 -40q-258 -47 -531 -53q-88 -2 -88 -51q0 -19 15 -40q34 -175 374 -184l360 -10h11v-17q-14 -137 -55 -137l-725 4 q-4 0 -12 -2t-12 -2q-76 0 -120 184q-27 113 -27 339zM301 726q0 -91 30 -130q20 -26 65 -26q18 -3 57 -3q114 0 239 20q174 29 210 82q45 67 45 142q0 86 -62 179q-29 44 -97 54q-487 0 -487 -318zM306 1607q4 9 16 27l227 -4l210 -141q27 -10 45 -23q8 -4 15 -11l-15 -81 l6 -7q9 2 9 24q-315 54 -493 200q-7 6 -20 16z" />
<glyph unicode="&#xe9;" horiz-adv-x="1188" d="M136 519v76l2 59q1 30 2 70l8 336q0 36 10 46q14 13 21 14q138 64 491 64q296 0 329 -33q23 -23 46 -100q54 -182 54 -384q0 -113 -26 -139q-20 -21 -127 -40q-258 -47 -531 -53q-88 -2 -88 -51q0 -19 15 -40q34 -175 374 -184l360 -10h11v-17q-14 -137 -55 -137l-725 4 q-4 0 -12 -2t-12 -2q-76 0 -120 184q-27 113 -27 339zM263 1368l10 105q0 15 18 25l224 124l260 12q14 -12 26 -47q3 -16 2 -17q-171 0 -407 -128q-81 -44 -132 -81q-1 4 -1 7zM301 726q0 -91 30 -130q20 -26 65 -26q18 -3 57 -3q114 0 239 20q174 29 210 82q45 67 45 142 q0 86 -62 179q-29 44 -97 54q-487 0 -487 -318z" />
<glyph unicode="&#xea;" horiz-adv-x="1188" d="M136 519v76l2 59q1 31 2 70l8 337q0 35 10 45q14 13 21 14q138 64 491 64q296 0 329 -33q23 -23 46 -100q54 -182 54 -383q0 -114 -26 -140q-20 -21 -127 -40q-258 -47 -531 -53q-88 -2 -88 -51q0 -19 15 -40q34 -175 374 -184l360 -10h11v-17q-14 -137 -55 -137l-725 4 q-4 0 -12 -2t-12 -2q-76 0 -120 184q-27 113 -27 339zM301 726q0 -91 30 -130q20 -26 65 -26q18 -3 57 -3q114 0 239 20q174 29 210 82q45 67 45 142q0 87 -62 180q-29 43 -97 53q-487 0 -487 -318zM343 1402q4 6 4 9q0 10 2 28l1 9q42 45 144 143l107 36q41 -27 61 -38 q79 -44 203 -121q3 -3 42 -58q8 0 5 -2q-7 -5 -7 -12l-307 97z" />
<glyph unicode="&#xeb;" horiz-adv-x="1239" d="M136 519v76l2 59q1 31 2 70l8 337q0 35 10 45q14 13 21 14q134 64 491 64q296 0 329 -33q23 -23 46 -100q54 -182 54 -383q0 -114 -26 -140q-20 -21 -127 -40q-263 -48 -531 -53q-88 -2 -88 -51q0 -19 15 -40q34 -175 374 -184l360 -10h11v-17q-14 -137 -55 -137l-725 4 q-4 0 -12 -2t-12 -2q-76 0 -120 184q-27 113 -27 339zM301 726q0 -91 30 -130q20 -26 65 -26q18 -2 57 -2q115 0 239 20q174 28 210 81q45 67 45 142q0 87 -62 180q-29 43 -97 53q-487 0 -487 -318zM369 1389q-1 5 4 30q10 46 10 91q0 33 -7 76q-4 25 1 25q12 0 110 9 q11 1 67 5q-8 -60 -25 -139l-25 -114zM666 1389q-1 5 4 30q10 46 10 91q0 33 -7 76q-4 25 1 25q12 0 110 9q11 1 67 5q-8 -60 -25 -139l-25 -114z" />
<glyph unicode="&#xec;" horiz-adv-x="532" d="M72 1595q10 3 73 28q19 5 37 5q40 0 68 -34q35 -35 79 -68q73 -54 101 -61l-6 1q4 -1 12 -5q-11 -4 -55 -44q-12 -11 -24 -14q-68 1 -99 26q-91 53 -170 147q-6 5 -16 19zM142 1244q5 -3 8 -3q99 0 149 -65q45 -59 45 -331v-116q-1 -91 -4 -167l-21 -526q-1 -23 -5 -31 q-2 0 -14 -1l-131 -4q-11 0 -11 35v1044q0 78 -16 165z" />
<glyph unicode="&#xed;" horiz-adv-x="532" d="M58 1336q5 8 12 35l10 106q0 16 18 25l189 124l145 11q12 -11 24 -44q0 -17 -4 -34q3 -3 3 -7q-133 0 -247 -85q-56 -42 -92 -77q-23 -23 -58 -54zM158 35v1094q0 26 10 38q5 5 17 12l77 35q33 15 64 30q27 13 32 18q0 5 4 10q-1 -4 -4 -14l-10 -284q-3 -83 -11 -338 l-18 -601q-1 -22 -5 -30q-2 0 -14 -1l-131 -4q-11 0 -11 35z" />
<glyph unicode="&#xee;" horiz-adv-x="512" d="M102 1427q3 11 9 31q51 52 73 104l101 62q5 -5 46 -98q16 -37 45 -59q5 -3 19 -24q-6 -5 -9 -10l-176 52zM152 65l16 969q1 45 9 109q38 25 62 34q17 6 76 20q32 8 54 19l-1 -10q-1 -5 -16 -473l-23 -695q-1 -23 -16 -36q-25 0 -76 -1t-76 -1q-10 5 -9 65z" />
<glyph unicode="&#xef;" horiz-adv-x="461" d="M-7 1389q-1 5 4 30q10 46 10 91q0 33 -7 76q-4 25 1 25q12 0 110 9q11 1 67 5q-8 -60 -25 -139l-25 -114zM131 65l17 1035q0 28 9 39q7 7 20 15l172 67q0 -4 -1 -14q-2 -53 -8 -232l-23 -700q-3 -64 -8 -237q0 -10 -5 -25q-6 -5 -11 -11q-26 0 -76.5 -1t-76.5 -1 q-2 4 -3 9q-7 20 -6 56zM290 1389q-1 5 4 30q10 46 10 91q0 33 -7 76q-4 25 1 25q12 0 110 9q11 1 67 5q-8 -60 -25 -139l-25 -114zM349 1221q-1 2 0 4v-4z" />
<glyph unicode="&#xf1;" horiz-adv-x="1126" d="M147 -3q0 1 5 1l2 767l10 368q4 9 14 19q3 6 12 12q25 10 93 10h201l425 -30q2 -1 5 -9q10 -27 11 -42l62 -639l12 -450q2 -8 2 -5l4 3q-1 -1 -4 -2h-130l-139 876q0 50 -37 56l-265 44q-54 0 -56 -40l-49 -325l-39 -595q-2 -6 -8 -14q-36 -1 -128 -6zM182 1511 q0 14 5 18q106 95 150 95q6 0 20 -2q73 0 184 -52l92 -43q29 -13 45 -13q32 0 88 37q30 24 84 57q10 -9 26 -27l-9 -65q-57 -52 -123 -84q-37 -18 -70 -18q-20 0 -32 6q-45 23 -163 82q-35 17 -88 27q-61 0 -134 -80q-10 0 -15 5z" />
<glyph unicode="&#xf2;" d="M166 1096q-1 21 30 35q52 24 69 26q210 25 497 25q125 0 191 -24q46 -23 46 -104v-667l-29 -366q-1 -17 -24 -17v-52v7q-2 31 -41 40q-25 6 -114 7l-310 4q-59 0 -202 2q-28 0 -36 25q-10 29 -13 65l-53 617zM306 1607q4 9 16 27l227 -4l210 -141q27 -10 45 -23 q8 -4 15 -11l-15 -82l6 -6q9 2 9 24q-315 54 -493 200q-7 6 -20 16zM327 777q0 -22 7 -46l75 -474q1 -38 31 -38q13 0 26 11l255 -41q27 0 53.5 16t30.5 41l49 319l-2 391q-61 66 -188 66q-138 0 -238 -50q-99 -84 -99 -195z" />
<glyph unicode="&#xf3;" d="M166 1096q-1 21 30 35q52 24 69 26q210 25 497 25q125 0 191 -24q46 -23 46 -104v-667l-29 -366q-1 -17 -24 -17v-52v7q-2 31 -41 40q-25 6 -114 7l-310 4q-59 0 -202 2q-28 0 -36 25q-10 29 -13 65l-53 617zM263 1368l10 105q0 15 18 25l224 124l260 12q14 -12 26 -47 q3 -16 2 -17q-171 0 -407 -128q-81 -44 -132 -81q-1 3 -1 7zM327 777q0 -22 7 -46l75 -474q1 -38 31 -38q13 0 26 11l255 -41q27 0 53.5 16t30.5 41l49 319l-2 391q-61 66 -188 66q-138 0 -238 -50q-99 -84 -99 -195z" />
<glyph unicode="&#xf4;" d="M166 1097q-1 21 30 35q49 23 69 25q210 25 497 25q125 0 191 -23q46 -27 46 -105v-667l-29 -366q-1 -17 -24 -17v-52v7q-2 31 -41 40q-25 6 -114 7l-310 4q-59 0 -202 2q-28 0 -36 25q-10 29 -13 65l-53 618zM312 1392q4 5 4 8q0 11 2 29l1 9q5 5 75 74l70 69l106 36 q19 -12 74 -44q89 -51 190 -116q3 -2 42 -57q8 0 5 -2q-7 -5 -7 -12l-307 97zM327 777q0 -22 7 -46l75 -474q1 -38 31 -38q13 0 26 11l255 -41q26 0 53 16.5t31 40.5l49 319l-2 392q-62 66 -188 66q-138 0 -238 -51q-99 -84 -99 -195z" />
<glyph unicode="&#xf5;" horiz-adv-x="1106" d="M146 1097q-1 20 32 35q42 19 68 25q222 26 495 26q125 0 191 -24q47 -29 47 -104v-668l-29 -366q-1 -17 -24 -17q-41 -1 -84 0q-65 1 -252 4l-230 2q-54 0 -85.5 1t-16.5 1q-41 0 -49 90l-53 618zM207 1504q0 14 5 18q106 95 150 95q6 0 20 -2q73 0 184 -52l92 -43 q29 -13 45 -13q32 0 88 37q30 24 84 57q10 -9 26 -27l-9 -65q-55 -51 -123 -84q-38 -19 -70 -19q-21 0 -32 6q-45 24 -163 83q-35 17 -88 27q-61 0 -134 -80q-10 0 -15 5zM307 777q0 -22 7 -46l64 -410q2 -78 122 -98l200 -34q25 0 54.5 17t30.5 40l49 319l-2 392 q-66 66 -189 66q-137 0 -236 -51q-100 -80 -100 -195z" />
<glyph unicode="&#xf6;" horiz-adv-x="1126" d="M146 1096q-1 21 32 36q42 19 68 25q213 25 495 25q125 0 191 -23q47 -29 47 -105v-667l-29 -366q-1 -17 -24 -17q-41 -1 -84 0q-65 1 -252 4l-230 2q-54 0 -85.5 1t-16.5 1q-41 0 -49 90l-53 617zM307 777q0 -22 7 -46l75 -474q1 -38 31 -38q16 0 27 12l253 -42 q25 0 54.5 17t30.5 40l49 319l-2 392q-66 65 -189 65q-137 0 -236 -50q-100 -80 -100 -195zM347 1389q0 4 6 30q10 43 10 91q0 34 -7 76q-4 24 0 25q19 2 111 9l64 4q-5 -35 -23 -136l-24 -116zM644 1389q0 4 6 30q10 43 10 91q0 34 -7 76q-4 24 0 25q19 2 111 9l64 4 q-5 -35 -23 -136l-24 -116z" />
<glyph unicode="&#xf8;" horiz-adv-x="1106" d="M146 1109q0 17 26 32q34 20 74 29q97 11 230 19q68 4 107 4q55 0 115 -12q14 26 60 26q72 0 119 -24q15 -8 24 -16q2 -3 2 -12t-3 -18q-7 -15 -22 -42q49 -37 73 -57l28 -647l-29 -370q-1 -8 -7 -10q-20 -7 -101 -7q-50 0 -150 -2t-150 -2q-56 7 -133 46q-26 -42 -33 -42 q-6 0 -18 1.5t-17 1.5q-26 1 -102 1q0 15 16 59l30 82q-40 45 -56 73l-73 506zM307 786q10 -71 63 -406l174 472l86 184q-150 -15 -223 -53q-100 -81 -100 -197zM482 229q73 -12 218 -38q72 0 92 94q8 38 23 147l19 140l-3 447q-95 -169 -134 -251q-18 -37 -80 -195 q-24 -58 -84 -212q-9 -23 -51 -132z" />
<glyph unicode="&#xf9;" d="M150 1170h130l139 -877q1 -23 11 -37t25 -17l266 -45q54 0 56 40l49 324l39 596q1 5 4 9l4 5q35 0 126 5v-1l-2 -767l-10 -373q0 -15 -12 -23q-20 -9 -29 -9h-672q-28 0 -35 26q-13 46 -13 70l-62 620l-12 450q0 2 -2 4zM306 1607q4 9 16 27l227 -4l210 -141 q27 -10 45 -23q8 -4 15 -11l-15 -81l6 -7q9 2 9 24q-315 54 -493 200q-7 6 -20 16z" />
<glyph unicode="&#xfa;" d="M150 1170h130l139 -877q1 -23 11 -37t25 -17l266 -45q54 0 56 40l49 324l39 596q1 5 4 9l4 5q35 1 126 6v-2l-2 -766l-10 -374q0 -15 -12 -23q-20 -9 -29 -9h-672q-28 0 -35 26q-13 46 -13 70l-62 620l-12 451q0 1 -2 3zM304 1352v7l10 106q0 9 6 16q2 4 8 7l228 126 l260 12q14 -12 25 -47l3 -18q-182 -3 -410 -127q-76 -41 -130 -82z" />
<glyph unicode="&#xfb;" d="M150 1170h130l139 -877q1 -23 11 -37t25 -17l266 -45q54 0 56 40l49 324l39 596q1 5 4 9l4 5q35 0 126 5v-1l-2 -767l-10 -373q0 -15 -12 -23q-20 -9 -29 -9h-672q-28 0 -35 26q-13 46 -13 70l-62 619l-12 451q0 2 -2 4zM282 1412q3 8 3 9q0 13 2 29v7q81 89 145 144 l108 36q24 -16 132 -77q87 -50 131 -81q3 -3 42 -59q8 0 5 -1q-7 -5 -7 -12l-307 96z" />
<glyph unicode="&#xfc;" horiz-adv-x="1126" d="M129 1170h131l139 -877q0 -23 10 -35q10 -16 25 -19l266 -45q54 0 56 40l49 324l39 598q0 4 9 12q34 1 126 6v-2l-3 -766l-10 -374q0 -15 -11 -23q-21 -9 -29 -9h-672q-27 0 -35 27q-14 45 -14 69l-61 620l-13 451q-1 1 -2 3zM347 1389q0 4 6 30q10 43 10 91q0 34 -7 76 q-4 24 0 25q19 2 111 9l64 4q-5 -35 -23 -136l-24 -116zM644 1389q0 4 6 30q10 43 10 91q0 34 -7 76q-4 24 0 25q19 2 111 9l64 4q-5 -35 -23 -136l-24 -116z" />
<glyph unicode="&#xfd;" horiz-adv-x="1096" d="M138 232v105q0 343 69 832q0 7 4 18h4q5 -1 10 -4q115 -6 131 -8q1 -2 1 -4q-1 -6 -3 -14q-19 -98 -47 -385l-31 -336q-2 -26 6 -118q3 -28 10 -84q62 -68 200 -68q118 0 220 42q24 24 47 48q22 28 22 64q-12 0 -12 11q0 13 5 39.5t5 40.5v342q-2 35 -9 194l-10 214 q0 4 1 7q7 3 11 3q66 12 127 12q23 0 28 -29q22 -121 25 -321q0 -108 2 -324l4 -765q-21 -55 -55 -77q-19 -12 -31 -15q-104 -23 -206 -23q-159 0 -356 55q-9 1 -12 6q-7 16 -7 26l-15 82q4 -1 8 -3q150 -28 312 -28q78 0 129 7q46 1 59 42q9 29 9 52q0 26 -2 95 q-21 63 -84 63q-177 -23 -301 -23q-121 0 -187 21q-45 0 -81 208zM506 1382q-1 5 4 30q10 46 10 91q0 32 -7 75q-4 26 1 26q14 0 110 8q18 1 67 5q-7 -54 -23 -129l-2 -9l-25 -114z" />
<glyph unicode="&#xff;" horiz-adv-x="1096" d="M138 232v105q0 343 69 832q0 7 4 18h4q5 -1 10 -4q115 -6 131 -8q1 -2 1 -4q-1 -6 -3 -14q-19 -98 -47 -385l-31 -336q-2 -26 6 -118q3 -28 10 -84q62 -68 200 -68q118 0 220 42q24 24 47 48q22 28 22 64q-12 0 -12 11q0 13 5 39.5t5 40.5v342q-2 35 -9 194l-10 214 q0 4 1 7q7 3 11 3q66 12 127 12q23 0 28 -29q22 -121 25 -321q0 -108 2 -324l4 -765q-21 -55 -55 -77q-19 -12 -31 -15q-104 -23 -206 -23q-159 0 -356 55q-9 1 -12 6q-7 16 -7 26l-15 82q4 -1 8 -3q150 -28 312 -28q78 0 129 7q46 1 59 42q9 29 9 52q0 26 -2 95 q-21 63 -84 63q-177 -23 -301 -23q-121 0 -187 21q-45 0 -81 208zM353 1382q-1 5 4 30q10 46 10 91q0 32 -7 75q-4 26 1 26q14 0 110 8q18 1 67 5q-7 -54 -23 -129l-2 -9l-25 -114zM650 1382q-1 5 4 30q10 46 10 91q0 32 -7 75q-4 26 1 26q14 0 110 8q18 1 67 5 q-7 -54 -23 -129l-2 -9l-25 -114z" />
<glyph unicode="&#x152;" horiz-adv-x="1679" d="M133 1489q-1 59 107 117q262 32 532 32q38 0 112 -19.5t109 -19.5q18 0 29 2q142 25 435 25q93 0 117 -4q6 8 6 11q0 2 -1 2q0 -2 -2 -7q0 -10 -2 -17q-8 -28 -29 -99q-6 -18 -12 -26q-4 -2 -18 -3l-155 -11q-96 -9 -154 -24q-26 -7 -71 -35q-77 -58 -99 -190l3 -304 q6 -46 118 -46h15q10 0 49 1l155 4q62 2 76 -6q3 -3 3 -13v-111q-5 -35 -23 -36q-128 -9 -228 -37q-136 -38 -149 -80q-16 -105 -16 -139q0 -282 397 -282q21 0 121 7q-6 -1 -5 -9q6 -38 8 -124q1 -22 -10 -22q-80 -11 -200 -18l-125 -7q-28 -2 -96 9t-97 11q-18 0 -29 -9 l1 1q-10 -7 -27 -7h-221q-111 2 -280 2h-219q-43 0 -51 87q-4 37 -9 115l-32 459q-9 84 -21 309zM295 1061q0 -18 6 -62l88 -645q14 -35 39 -42l326 -89q29 0 57 21t32 49l54 407l-6 323l-18 273q-111 139 -201 139q-139 0 -258 -68q-119 -180 -119 -306z" />
<glyph unicode="&#x153;" horiz-adv-x="1536" d="M122 1109q-1 40 77 61q170 26 394 26q112 0 163 -32q139 34 318 34q237 0 264 -32q39 -47 69 -292q11 -89 11 -192q0 -123 -19 -148q-15 -22 -100 -41q-205 -47 -423 -53q-77 -2 -77 -62q0 -76 96 -155q70 -57 222 -61q74 -1 266 -9q27 -4 26 -18q-10 -139 -39 -139 q-480 0 -811 9q-40 1 -270 6l-83 2q-28 0 -34 91l-42 624zM240 793q0 -17 5 -46q0 -5 52 -422q1 -77 101 -99l-3 3q8 -4 18 -7l44 -9q78 -16 100 -16q69 0 76 53l26 211l-1 141l8 299q3 10 3 27q0 106 -155 106q-51 0 -102 -13q-70 -18 -93 -43q-76 -83 -79 -185zM780 735 q0 -162 91 -162q110 0 215 19q153 29 185 87q36 66 36 141q0 51 -21 118q-30 96 -93 111q-25 6 -62 6q-157 0 -251 -80q-100 -86 -100 -240z" />
<glyph unicode="&#x178;" horiz-adv-x="1331" d="M199 1625q2 3 12 6l167 5q28 1 29 -14l68 -814q5 -62 39 -67l414 -61q59 0 64 47l53 530l31 371q1 3 9 3q124 0 164 19l-20 -14q6 0 23 -6q1 -1 1 -6l-2 -553l-14 -527q0 -56 -21 -240q-20 -173 -42 -269q-4 -17 -8 -26q-3 -5 -9 -5l-878 4q-2 0 -4 -1l75 154q3 12 34 18 q157 8 430 45q98 13 115 22q44 21 44 93v68q0 53 -57 53q-74 -9 -164 -9q-253 0 -445 64q-44 0 -58 41q-16 47 -17 89zM505 1782q-1 3 5 22q10 32 10 67q0 33 -7 75q-4 24 0 26q77 0 177 13q-8 -49 -25 -120l-24 -100zM802 1782q-1 3 5 22q10 32 10 67q0 33 -7 75 q-4 24 0 26q44 0 120 8l57 6q-9 -52 -25 -121l-24 -100z" />
<glyph unicode="&#x2c6;" horiz-adv-x="758" d="M128 1371q3 9 3 11q0 17 2 30l2 13q42 54 144 169l107 43q14 -10 51 -36q21 -15 79 -56q93 -63 135 -97l41 -67q8 0 5 -2q-7 -6 -7 -14l-308 113z" />
<glyph unicode="&#x2000;" horiz-adv-x="1003" />
<glyph unicode="&#x2001;" horiz-adv-x="2007" />
<glyph unicode="&#x2002;" horiz-adv-x="1003" />
<glyph unicode="&#x2003;" horiz-adv-x="2007" />
<glyph unicode="&#x2004;" horiz-adv-x="669" />
<glyph unicode="&#x2005;" horiz-adv-x="501" />
<glyph unicode="&#x2006;" horiz-adv-x="334" />
<glyph unicode="&#x2007;" horiz-adv-x="334" />
<glyph unicode="&#x2008;" horiz-adv-x="250" />
<glyph unicode="&#x2009;" horiz-adv-x="401" />
<glyph unicode="&#x200a;" horiz-adv-x="111" />
<glyph unicode="&#x2010;" horiz-adv-x="834" d="M158 568q1 3 8 29l29 103q0 34 12 42q18 11 63 12l406 8q32 1 47 -3q-2 -10 -9 -27l-20 -98q0 -17 -11 -43q-7 -17 -28 -17q-7 0 -19 7l-433 -10q-14 0 -33 -6q-12 -4 -12 3z" />
<glyph unicode="&#x2011;" horiz-adv-x="834" d="M158 568q1 3 8 29l29 103q0 34 12 42q18 11 63 12l406 8q32 1 47 -3q-2 -10 -9 -27l-20 -98q0 -17 -11 -43q-7 -17 -28 -17q-7 0 -19 7l-433 -10q-14 0 -33 -6q-12 -4 -12 3z" />
<glyph unicode="&#x2012;" horiz-adv-x="834" d="M158 568q1 3 8 29l29 103q0 34 12 42q18 11 63 12l406 8q32 1 47 -3q-2 -10 -9 -27l-20 -98q0 -17 -11 -43q-7 -17 -28 -17q-7 0 -19 7l-433 -10q-14 0 -33 -6q-12 -4 -12 3z" />
<glyph unicode="&#x2013;" horiz-adv-x="1293" d="M158 568q2 3 14 29l53 103q0 34 22 42q32 11 114 12l736 8q58 1 85 -3q-4 -10 -16 -27l-37 -98q0 -17 -19 -43q-13 -17 -51 -17q-13 0 -35 7l-784 -10q-26 0 -60 -6q-22 -4 -22 3z" />
<glyph unicode="&#x2014;" horiz-adv-x="2317" d="M158 568q4 3 29 29l105 103q0 34 44 42q65 11 228 12l1472 8q116 1 170 -3q-7 -10 -33 -27l-72 -98q0 -17 -40 -43q-25 -17 -101 -17q-26 0 -69 7l-1570 -10q-51 0 -120 -6q-43 -4 -43 3z" />
<glyph unicode="&#x2018;" horiz-adv-x="500" d="M153 1143q11 116 40 278q9 52 44 104q30 45 45 60q14 -2 27 -2q-8 0 45 7q-3 -57 -54 -235q-19 -63 -66 -227z" />
<glyph unicode="&#x2019;" horiz-adv-x="500" d="M153 1143q11 116 40 278q9 52 44 104q30 45 45 60q14 -2 27 -2q-8 0 45 7q-3 -57 -54 -235q-19 -63 -66 -227z" />
<glyph unicode="&#x201a;" horiz-adv-x="500" d="M132 -331l1 9l13 75q12 72 36 193q12 50 50 101q31 41 48 57q10 -2 23 -2q25 0 49 4q-2 -41 -66 -233l-74 -223z" />
<glyph unicode="&#x201c;" horiz-adv-x="696" d="M131 1357q-1 2 3 67q4 74 4 165q0 69 -7 141q-5 47 0 47q47 0 123 13q30 5 55 11q-3 -57 -27 -256l-25 -210zM428 1357q-1 2 3 67q4 74 4 165q0 69 -7 141q-5 47 0 47q47 0 123 13q30 5 55 11q-4 -65 -27 -261q2 -71 -4 -209z" />
<glyph unicode="&#x201d;" horiz-adv-x="696" d="M131 1357q-1 2 3 67q4 74 4 165q0 69 -7 141q-5 47 0 47q47 0 123 13q30 5 55 11q-3 -57 -27 -256l-25 -210zM428 1357q-1 2 3 67q4 74 4 165q0 69 -7 141q-5 47 0 47q47 0 123 13q30 5 55 11q-4 -65 -27 -261q2 -71 -4 -209z" />
<glyph unicode="&#x201e;" horiz-adv-x="696" d="M131 30q-5 47 0 47q60 0 123 11q27 5 55 12q-5 -69 -27 -255l-25 -210l-126 22q-1 2 3 67q4 74 4 165q0 69 -7 141zM428 30q-5 47 0 47q60 0 123 11q27 5 55 12q-4 -66 -27 -260q2 -71 -4 -209l-147 26q-1 2 3 67q4 74 4 165q0 69 -7 141z" />
<glyph unicode="&#x202f;" horiz-adv-x="401" />
<glyph unicode="&#x2039;" horiz-adv-x="471" d="M128 529q8 15 26 49q13 25 48 94q17 34 44 87l33 61q9 6 56 45q0 8 2 5q5 -7 11 -7l-89 -336l91 -276q-7 3 -9 3h-6l-20 2l-10 1q-30 31 -140 155z" />
<glyph unicode="&#x203a;" horiz-adv-x="902" d="M130 291q55 167 109 335l-77 279q2 -2 3 -2h6q7 0 24 -3l11 -2q17 -19 132 -163l31 -118q-7 -13 -27 -48q-15 -24 -54 -91q-47 -84 -84 -144q-26 -19 -58 -42v-2q-2 5 -7 5h-4q-3 -3 -5 -4z" />
<glyph unicode="&#x205f;" horiz-adv-x="501" />
<glyph unicode="&#x20ac;" horiz-adv-x="1157" d="M48 563l36 103q0 33 31 40q3 0 60 1l-10 216h-56q-48 0 -44 -4l36 103q0 28 21 36q5 1 47 6q2 32 6 111q17 339 51 396q27 45 491 53q115 2 164 2h143q13 0 14 -2q0 -9 -43 -110q0 -28 -38 -30q-153 -8 -252 -24q-271 -43 -304 -182q-22 -32 -35 -149q0 -69 52 -69 q17 0 33 6l303 3q28 0 47 -3q-2 -7 -9 -20l-20 -75q0 -13 -11 -33q-7 -13 -26 -13q-8 0 -21 6l-284 -4q-76 -1 -76 -67q0 -7 2 -18q1 -66 10 -93q14 -41 49 -41q9 0 19 3l219 2q29 0 47 -3q-2 -7 -9 -20q-7 -30 -23 -90q-1 -7 -8 -17q-7 -14 -26 -14q-8 0 -21 6l-183 -2 q-64 -1 -64 -67q0 -8 1.5 -24.5t1.5 -24.5q14 -93 41 -158q32 -79 130 -80q190 -49 386 -49q30 0 82 5q0 -3 1 -13l8 -115q1 -21 -17 -21q-85 -10 -251 -18l-150 -7q-81 -4 -277 32q-85 16 -96 36q-3 4 -15 118q-14 125 -26 381h-57q-9 -1 -33 -2q-49 -1 -47 -3z" />
<glyph unicode="&#xe000;" horiz-adv-x="1205" d="M0 0v1205h1205v-1205h-1205z" />
</font>
</defs>
</svg>
